<svg xmlns="http://www.w3.org/2000/svg" direction="ltr" width="1077.768898488121" height="335.69006479481646" viewBox="176.4190064794816 149.5075593952484 1077.768898488121 335.69006479481646" stroke-linecap="round" stroke-linejoin="round" style="background-color: transparent;" data-color-mode="light" class="tl-container tl-theme__force-sRGB tl-theme__light"><defs/><g transform="matrix(1, 0, 0, 1, 341.4255, 187.1847)" opacity="1"><path stroke-width="3.5" d="M 7.8465 0.0096 L 248.259 0.909 Q 255.259 0.909 255.259 7.909 L 256.8108 208.5331 Q 256.8108 215.5331 249.8108 215.5331 L 6.7684 215.8622 Q -0.2316 215.8622 -0.2316 208.8622 L 0.8465 7.0096 Q 0.8465 0.0096 7.8465 0.0096 M 7.1751 0.5268 L 248.3785 0.6455 Q 255.3785 0.6455 255.3785 7.6455 L 256.2683 207.1879 Q 256.2683 214.1879 249.2683 214.1879 L 7.3378 214.779 Q 0.3378 214.779 0.3378 207.779 L 0.1751 7.5268 Q 0.1751 0.5268 7.1751 0.5268" fill="none" stroke="#f1ac4b"/></g><g transform="matrix(1, 0, 0, 1, 439.5583, 213.1371)" opacity="1"><path stroke-width="3.5" d="M 6.3949 0.8445 L 180.8941 1.0471 Q 187.8941 1.0471 187.8941 8.0471 L 188.5243 119.4252 Q 188.5243 126.4252 181.5243 126.4252 L 7.3057 126.5092 Q 0.3057 126.5092 0.3057 119.5092 L -0.6051 7.8445 Q -0.6051 0.8445 6.3949 0.8445 M 6.875 0.9151 L 181.0253 0.798 Q 188.0253 0.798 188.0253 7.798 L 187.9823 117.8543 Q 187.9823 124.8543 180.9823 124.8543 L 6.727 125.1252 Q -0.273 125.1252 -0.273 118.1252 L -0.125 7.9151 Q -0.125 0.9151 6.875 0.9151" fill="none" stroke="#4ba1f1"/></g><g transform="matrix(1, 0, 0, 1, 418.4719, 250.4438)" opacity="1"><path stroke-width="3.5" d="M 6.6088 -1.1532 L 117.0261 0.1889 Q 124.0261 0.1889 124.0261 7.1889 L 125.0812 58.3998 Q 125.0812 65.3998 118.0812 65.3998 L 6.5157 64.965 Q -0.4843 64.965 -0.4843 57.965 L -0.3912 5.8468 Q -0.3912 -1.1532 6.6088 -1.1532 M 6.0772 -0.6406 L 116.8976 0.4542 Q 123.8976 0.4542 123.8976 7.4542 L 123.2996 57.483 Q 123.2996 64.483 116.2996 64.483 L 7.0852 63.9963 Q 0.0852 63.9963 0.0852 56.9963 L -0.9228 6.3594 Q -0.9228 -0.6406 6.0772 -0.6406" fill="none" stroke="#f87777"/></g><g transform="matrix(1, 0, 0, 1, 660.1544, 243.1447)" opacity="1"><path stroke-width="3.5" d="M 7.2889 -0.0572 L 162.1539 -1.0666 Q 169.1539 -1.0666 169.1539 5.9334 L 168.7192 191.2561 Q 168.7192 198.2561 161.7192 198.2561 L 7.5031 198.8631 Q 0.5031 198.8631 0.5031 191.8631 L 0.2889 6.9428 Q 0.2889 -0.0572 7.2889 -0.0572 M 7.7328 -0.5699 L 161.984 -0.733 Q 168.984 -0.733 168.984 6.267 L 168.1772 190.3478 Q 168.1772 197.3478 161.1772 197.3478 L 6.8972 197.8591 Q -0.1028 197.8591 -0.1028 190.8591 L 0.7328 6.4301 Q 0.7328 -0.5699 7.7328 -0.5699" fill="none" stroke="#4ba1f1"/></g><g transform="matrix(1, 0, 0, 1, 748.5551, 274.7743)" opacity="1"><path stroke-width="3.5" d="M 6.1597 0.3262 L 101.6801 -0.8515 Q 108.6801 -0.8515 108.6801 6.1485 L 109.7387 141.5676 Q 109.7387 148.5676 102.7387 148.5676 L 6.1073 147.4317 Q -0.8927 147.4317 -0.8927 140.4317 L -0.8403 7.3262 Q -0.8403 0.3262 6.1597 0.3262 M 6.8187 0.2465 L 101.8454 -1.0939 Q 108.8454 -1.0939 108.8454 5.9061 L 107.9475 141.3794 Q 107.9475 148.3794 100.9475 148.3794 L 7.853 148.4511 Q 0.853 148.4511 0.853 141.4511 L -0.1813 7.2465 Q -0.1813 0.2465 6.8187 0.2465" fill="none" stroke="#f87777"/></g><g transform="matrix(1, 0, 0, 1, 725.8467, 302.3488)" opacity="1"><path stroke-width="3.5" d="M 8.1375 0.5742 L 47.9454 -0.8222 Q 54.9454 -0.8222 54.9454 6.1778 L 54.4877 91.6888 Q 54.4877 98.6888 47.4877 98.6888 L 7.4618 99.2761 Q 0.4618 99.2761 0.4618 92.2761 L 1.1375 7.5742 Q 1.1375 0.5742 8.1375 0.5742 M 7.4657 0.0707 L 48.1062 -1.1608 Q 55.1062 -1.1608 55.1062 5.8392 L 56.2061 93.6994 Q 56.2061 100.6994 49.2061 100.6994 L 6.865 100.5992 Q -0.135 100.5992 -0.135 93.5992 L 0.4657 7.0707 Q 0.4657 0.0707 7.4657 0.0707" fill="none" stroke="#f1ac4b"/></g><g transform="matrix(1, 0, 0, 1, 889.6717, 181.5076)" opacity="1"><path stroke-width="3.5" d="M 6.4932 -0.9891 L 159.9502 -0.9821 Q 166.9502 -0.9821 166.9502 6.0179 L 167.2669 187.0693 Q 167.2669 194.0693 160.2669 194.0693 L 7.3545 193.1455 Q 0.3545 193.1455 0.3545 186.1455 L -0.5068 6.0109 Q -0.5068 -0.9891 6.4932 -0.9891 M 5.9035 -0.768 L 160.0696 -0.7184 Q 167.0696 -0.7184 167.0696 6.2816 L 165.4756 186.7357 Q 165.4756 193.7357 158.4756 193.7357 L 6.7574 194.1541 Q -0.2426 194.1541 -0.2426 187.1541 L -1.0965 6.232 Q -1.0965 -0.768 5.9035 -0.768" fill="none" stroke="#f87777"/></g><g transform="matrix(1, 0, 0, 1, 909.9471, 269.0972)" opacity="1"><path stroke-width="3.5" d="M 5.9347 -0.9879 L 163.1891 -0.2034 Q 170.1891 -0.2034 170.1891 6.7966 L 170.2117 129.8534 Q 170.2117 136.8534 163.2117 136.8534 L 7.5074 136.344 Q 0.5074 136.344 0.5074 129.344 L -1.0653 6.0121 Q -1.0653 -0.9879 5.9347 -0.9879 M 6.4604 -0.7714 L 163.0629 -0.467 Q 170.0629 -0.467 170.0629 6.533 L 171.9939 130.1118 Q 171.9939 137.1118 164.9939 137.1118 L 6.8922 137.4135 Q -0.1078 137.4135 -0.1078 130.4135 L -0.5396 6.2286 Q -0.5396 -0.7714 6.4604 -0.7714" fill="none" stroke="#f1ac4b"/></g><g transform="matrix(1, 0, 0, 1, 936.7106, 345.3326)" opacity="1"><path stroke-width="3.5" d="M 8.0624 -1.1528 L 93.278 -0.9034 Q 100.278 -0.9034 100.278 6.0966 L 99.5971 85.9395 Q 99.5971 92.9395 92.5971 92.9395 L 6.086 92.5941 Q -0.914 92.5941 -0.914 85.5941 L 1.0624 5.8472 Q 1.0624 -1.1528 8.0624 -1.1528 M 7.541 -0.6446 L 93.4433 -0.642 Q 100.4433 -0.642 100.4433 6.358 L 101.3064 85.1069 Q 101.3064 92.1069 94.3064 92.1069 L 7.8043 91.5166 Q 0.8043 91.5166 0.8043 84.5166 L 0.541 6.3554 Q 0.541 -0.6446 7.541 -0.6446" fill="none" stroke="#4ba1f1"/></g><g transform="matrix(1, 0, 0, 1, 1109.4568, 218.0032)" opacity="1"><path stroke-width="3.5" d="M 6.3533 0.6278 L 72.5114 -1.1308 Q 79.5114 -1.1308 79.5114 5.8692 L 79.5121 108.3123 Q 79.5121 115.3123 72.5121 115.3123 L 6.0797 116.1227 Q -0.9203 116.1227 -0.9203 109.1227 L -0.6467 7.6278 Q -0.6467 0.6278 6.3533 0.6278 M 6.9166 1.1315 L 72.385 -0.8158 Q 79.385 -0.8158 79.385 6.1842 L 77.7208 108.136 Q 77.7208 115.136 70.7208 115.136 L 7.8067 115.1546 Q 0.8067 115.1546 0.8067 108.1546 L -0.0834 8.1315 Q -0.0834 1.1315 6.9166 1.1315" fill="none" stroke="#f1ac4b"/></g><g transform="matrix(1, 0, 0, 1, 1141.0864, 256.121)" opacity="1"><path stroke-width="3.5" d="M 6.4998 1.0238 L 73.3839 -0.1075 Q 80.3839 -0.1075 80.3839 6.8925 L 80.6311 28.2661 Q 80.6311 35.2661 73.6311 35.2661 L 6.3481 34.4635 Q -0.6519 34.4635 -0.6519 27.4635 L -0.5002 8.0238 Q -0.5002 1.0238 6.4998 1.0238 M 5.8953 0.6614 L 73.2597 -0.425 Q 80.2597 -0.425 80.2597 6.575 L 81.1829 27.3601 Q 81.1829 34.3601 74.1829 34.3601 L 8.1301 35.5011 Q 1.1301 35.5011 1.1301 28.5011 L -1.1047 7.6614 Q -1.1047 0.6614 5.8953 0.6614" fill="none" stroke="#f87777"/></g><g transform="matrix(1, 0, 0, 1, 226.2613, 267.4752)" opacity="1"><path stroke-width="3.5" d="M 7.9926 0.7047 L 53.9804 0.6844 Q 60.9804 0.6844 60.9804 7.6844 L 60.2581 178.3631 Q 60.2581 185.3631 53.2581 185.3631 L 5.9238 186.6751 Q -1.0762 186.6751 -1.0762 179.6751 L 0.9926 7.7047 Q 0.9926 0.7047 7.9926 0.7047 M 7.3208 1.0717 L 54.1362 1.007 Q 61.1362 1.007 61.1362 8.007 L 59.7064 179.1986 Q 59.7064 186.1986 52.7064 186.1986 L 7.6784 185.7166 Q 0.6784 185.7166 0.6784 178.7166 L 0.3208 8.0717 Q 0.3208 1.0717 7.3208 1.0717" fill="none" stroke="#f87777"/></g><g transform="matrix(1, 0, 0, 1, 208.419, 311.27)" opacity="1"><path stroke-width="3.5" d="M 7.1995 -0.3694 L 35.6752 0.5854 Q 42.6752 0.5854 42.6752 7.5854 L 43.2084 111.5385 Q 43.2084 118.5385 36.2084 118.5385 L 6.177 118.1651 Q -0.823 118.1651 -0.823 111.1651 L 0.1995 6.6306 Q 0.1995 -0.3694 7.1995 -0.3694 M 7.8221 -0.1483 L 35.5189 0.9236 Q 42.5189 0.9236 42.5189 7.9236 L 41.49 109.5393 Q 41.49 116.5393 34.49 116.5393 L 7.9315 116.8096 Q 0.9315 116.8096 0.9315 109.8096 L 0.8221 6.8517 Q 0.8221 -0.1483 7.8221 -0.1483" fill="none" stroke="#4ba1f1"/></g></svg>