<svg xmlns="http://www.w3.org/2000/svg" direction="ltr" width="488.95479705727394" height="219.2827833056013" viewBox="1470.8576107710926 36.88374525952814 488.95479705727394 219.2827833056013" stroke-linecap="round" stroke-linejoin="round" data-color-mode="light" class="tl-container tl-theme__force-sRGB tl-theme__light" style="background-color: transparent;"><defs/><g transform="matrix(-0.9272, -0.3746, 0.3746, -0.9272, 1755.4638, 183.0753)" opacity="1"><path d="M14.48, 2.6 A7.5374,7.5374 0 0,1 25.99, 9.57 A5.9523,5.9523 0 0,1 24.35, 20.16 A6.5061,6.5061 0 0,1 15.25, 27.59 A7.3613,7.3613 0 0,1 4.52, 20.57 A6.7046,6.7046 0 0,1 5.46, 8.2 A6.3904,6.3904 0 0,1 14.48, 2.6M13.85, 1.81 A10.6833,10.6833 0 0,1 27.14, 8.31 A11.8139,11.8139 0 0,1 24.03, 19.73 A7.1055,7.1055 0 0,1 15.61, 28.95 A9.3656,9.3656 0 0,1 5.1, 19.99 A6.1876,6.1876 0 0,1 6.79, 7.81 A5.7078,5.7078 0 0,1 15.66, 1.61 Z" stroke="#1d1d1d" stroke-width="3.5" fill="none"/></g><g transform="matrix(-0.9994, 0.0349, -0.0349, -0.9994, 1673.0517, 131.7841)" opacity="1"><path d="M17.13, 3.33 A6.8715,6.8715 0 0,1 27.77, 7.61 A7.4407,7.4407 0 0,1 31.11, 20.56 A7.9464,7.9464 0 0,1 19.28, 28.89 A8.4034,8.4034 0 0,1 5.53, 24.3 A8.0131,8.0131 0 0,1 3.94, 11.41 A8.3369,8.3369 0 0,1 17.13, 3.33M18.44, 3.02 A5.0737,5.0737 0 0,1 26.62, 8.61 A6.479,6.479 0 0,1 30.15, 21.06 A7.1116,7.1116 0 0,1 19.83, 29.15 A8.6858,8.6858 0 0,1 5.54, 24.62 A10.4247,10.4247 0 0,1 3.91, 10.23 A8.0874,8.0874 0 0,1 17.81, 3.46 Z" stroke="#f87777" stroke-width="3.5" fill="none"/></g><g transform="matrix(0.9848, 0.1736, -0.1736, 0.9848, 1615.4004, 141.1713)" opacity="1"><path d="M15.93, 3.22 A8.6106,8.6106 0 0,1 30.36, 8.04 A7.7524,7.7524 0 0,1 33.97, 21.06 A8.6283,8.6283 0 0,1 21.89, 29.72 A8.7057,8.7057 0 0,1 7.54, 25.12 A7.811,7.811 0 0,1 3.63, 12.2 A8.5849,8.5849 0 0,1 15.93, 3.22M15.34, 2.54 A8.5757,8.5757 0 0,1 29, 8.84 A6.5466,6.5466 0 0,1 34.09, 20.83 A9.4069,9.4069 0 0,1 22.59, 30.56 A11.4958,11.4958 0 0,1 6.55, 25.89 A10.9057,10.9057 0 0,1 4.04, 10.88 A13.5905,13.5905 0 0,1 15.28, 1.86 Z" stroke="#f1ac4b" stroke-width="3.5" fill="none"/></g><g transform="matrix(-0.9135, 0.4067, -0.4067, -0.9135, 1816.1264, 141.301)" opacity="1"><path d="M20.95, 3.5 A11.7002,11.7002 0 0,1 37.85, 8.55 A10.9775,10.9775 0 0,1 39.75, 28.22 A9.5346,9.5346 0 0,1 26.13, 36.74 A9.525,9.525 0 0,1 9.79, 30.43 A9.5263,9.5263 0 0,1 5.07, 13.39 A10.9925,10.9925 0 0,1 20.95, 3.5M21.41, 2.38 A9.5012,9.5012 0 0,1 36.91, 7.92 A11.5978,11.5978 0 0,1 40.88, 27.55 A10.6298,10.6298 0 0,1 26.84, 37.1 A10.944,10.944 0 0,1 8.71, 29.75 A8.6135,8.6135 0 0,1 5.5, 14.05 A11.4521,11.4521 0 0,1 20.71, 3.03 Z" stroke="#4ba1f1" stroke-width="3.5" fill="none"/></g><g transform="matrix(0.1219, 0.9925, -0.9925, 0.1219, 1625.9968, 107.3486)" opacity="1"><path d="M10.88, 3.09 A6.9073,6.9073 0 0,1 22.06, 3.2 A6.306,6.306 0 0,1 27.58, 13.66 A5.7082,5.7082 0 0,1 19.02, 19.37 A7.3266,7.3266 0 0,1 6.83, 18.81 A5.1383,5.1383 0 0,1 3.87, 9.66 A4.9505,4.9505 0 0,1 10.88, 3.09M10.34, 3.48 A7.3532,7.3532 0 0,1 23.4, 3.63 A5.2643,5.2643 0 0,1 26.2, 13.72 A4.4136,4.4136 0 0,1 19.3, 19.06 A6.231,6.231 0 0,1 7.4, 18.44 A7.3926,7.3926 0 0,1 3.04, 8.83 A5.9525,5.9525 0 0,1 11.57, 2.22 Z" stroke="#1d1d1d" stroke-width="3.5" fill="none"/></g><g transform="matrix(-0.4695, 0.8829, -0.8829, -0.4695, 1856.2137, 148.2379)" opacity="1"><path d="M19.79, 4.38 A12.3025,12.3025 0 0,1 40.31, 9.27 A9.4556,9.4556 0 0,1 41.94, 26.62 A9.4274,9.4274 0 0,1 28.82, 37.98 A11.0702,11.0702 0 0,1 11.41, 34.17 A11.4315,11.4315 0 0,1 4.65, 14.33 A11.0048,11.0048 0 0,1 19.79, 4.38M18.6, 3.9 A11.9603,11.9603 0 0,1 38.99, 8.54 A12.7126,12.7126 0 0,1 43.31, 27.91 A10.0235,10.0235 0 0,1 29.45, 38.71 A10.9824,10.9824 0 0,1 11.81, 33.24 A11.2934,11.2934 0 0,1 4.25, 13.76 A15.6307,15.6307 0 0,1 21.05, 3.38 Z" stroke="#f87777" stroke-width="3.5" fill="none"/></g><g transform="matrix(-0.6018, 0.7986, -0.7986, -0.6018, 1877.3513, 117.444)" opacity="1"><path d="M11.57, 2.38 A8.856,8.856 0 0,1 24.96, 4.03 A7.1356,7.1356 0 0,1 29, 15.88 A6.4036,6.4036 0 0,1 19.59, 21.74 A7.5967,7.5967 0 0,1 7.59, 21.14 A6.6281,6.6281 0 0,1 3.56, 9.35 A6.2367,6.2367 0 0,1 11.57, 2.38M10.24, 1.35 A10.1881,10.1881 0 0,1 25.16, 3.28 A8.1905,8.1905 0 0,1 29.23, 17.05 A8.4088,8.4088 0 0,1 20.1, 21.63 A6.3479,6.3479 0 0,1 8, 21.43 A6.0048,6.0048 0 0,1 4.17, 10.71 A5.9672,5.9672 0 0,1 11.42, 1.8 Z" stroke="#f1ac4b" stroke-width="3.5" fill="none"/></g><g transform="matrix(-0.9994, 0.0349, -0.0349, -0.9994, 1883.5879, 209.2057)" opacity="1"><path d="M8.47, 1.96 A4.2756,4.2756 0 0,1 15.73, 3.78 A3.9646,3.9646 0 0,1 17.25, 10.91 A3.9646,3.9646 0 0,1 11.21, 14.99 A4.2756,4.2756 0 0,1 3.95, 13.16 A3.9646,3.9646 0 0,1 2.43, 6.03 A3.9646,3.9646 0 0,1 8.47, 1.96M8.47, 1.96 A4.2756,4.2756 0 0,1 15.73, 3.78 A3.9646,3.9646 0 0,1 17.25, 10.91 A3.9646,3.9646 0 0,1 11.21, 14.99 A4.2756,4.2756 0 0,1 3.95, 13.16 A3.9646,3.9646 0 0,1 2.43, 6.03 A3.9646,3.9646 0 0,1 8.47, 1.96 Z" stroke="#1d1d1d" stroke-width="3.5" fill="none"/></g><g transform="matrix(-0.9994, 0.0349, -0.0349, -0.9994, 1907.1776, 179.9417)" opacity="1"><path d="M14.2, 2.51 A7.5985,7.5985 0 0,1 25.45, 5.88 A7.5639,7.5639 0 0,1 27.48, 19.14 A6.7952,6.7952 0 0,1 16.48, 24.47 A5.7427,5.7427 0 0,1 6.54, 20.47 A5.9144,5.9144 0 0,1 4.9, 9.07 A6.3018,6.3018 0 0,1 14.2, 2.51M14.59, 1.57 A7.9145,7.9145 0 0,1 26.67, 5.22 A7.8691,7.8691 0 0,1 28.49, 18.19 A9.3127,9.3127 0 0,1 15.39, 24.07 A7.3971,7.3971 0 0,1 5.5, 20.99 A5.7435,5.7435 0 0,1 4.63, 9.63 A9.1483,9.1483 0 0,1 15.3, 2.93 Z" stroke="#4ba1f1" stroke-width="3.5" fill="none"/></g><g transform="matrix(-0.2588, 0.9659, -0.9659, -0.2588, 1588.0786, 122.193)" opacity="1"><path d="M10.32, 2.54 A5.3528,5.3528 0 0,1 19.1, 3.79 A5.0671,5.0671 0 0,1 21.1, 13.31 A4.2335,4.2335 0 0,1 14.14, 17.61 A5.174,5.174 0 0,1 4.74, 16.25 A4.835,4.835 0 0,1 2.86, 7.89 A4.898,4.898 0 0,1 10.32, 2.54M10.32, 2.54 A5.3528,5.3528 0 0,1 19.1, 3.79 A5.0671,5.0671 0 0,1 21.1, 13.31 A4.2335,4.2335 0 0,1 14.14, 17.61 A5.174,5.174 0 0,1 4.74, 16.25 A4.835,4.835 0 0,1 2.86, 7.89 A4.898,4.898 0 0,1 10.32, 2.54 Z" stroke="#4ba1f1" stroke-width="3.5" fill="none"/></g><g transform="matrix(-0.9994, 0.0349, -0.0349, -0.9994, 1575.0541, 113.3291)" opacity="1"><path d="M15.42, 3.04 A8.0198,8.0198 0 0,1 27.91, 5.56 A7.8725,7.8725 0 0,1 33.09, 19.24 A7.6526,7.6526 0 0,1 21.82, 26.63 A8.4965,8.4965 0 0,1 7.29, 23.43 A6.6606,6.6606 0 0,1 4.17, 11.98 A7.6679,7.6679 0 0,1 15.42, 3.04M15.94, 2.32 A7.3494,7.3494 0 0,1 27.85, 6.45 A6.3861,6.3861 0 0,1 32.2, 18.45 A7.3769,7.3769 0 0,1 22.11, 26.83 A10.4197,10.4197 0 0,1 7.25, 24.17 A7.0301,7.0301 0 0,1 5.46, 13.01 A7.5935,7.5935 0 0,1 16.43, 2.59 Z" stroke="#f1ac4b" stroke-width="3.5" fill="none"/></g><g transform="matrix(-0.2588, 0.9659, -0.9659, -0.2588, 1742.8545, 106.3964)" opacity="1"><path d="M9.83, 2.64 A5.4929,5.4929 0 0,1 19.47, 4.44 A5.2899,5.2899 0 0,1 22.03, 13.74 A4.733,4.733 0 0,1 14.75, 17.88 A4.8413,4.8413 0 0,1 5.78, 15.67 A4.6575,4.6575 0 0,1 3.13, 6.98 A4.5231,4.5231 0 0,1 9.83, 2.64M9.83, 2.64 A5.4929,5.4929 0 0,1 19.47, 4.44 A5.2899,5.2899 0 0,1 22.03, 13.74 A4.733,4.733 0 0,1 14.75, 17.88 A4.8413,4.8413 0 0,1 5.78, 15.67 A4.6575,4.6575 0 0,1 3.13, 6.98 A4.5231,4.5231 0 0,1 9.83, 2.64 Z" stroke="#4ba1f1" stroke-width="3.5" fill="none"/></g><g transform="matrix(-0.6018, 0.7986, -0.7986, -0.6018, 1724.9201, 153.395)" opacity="1"><path d="M15.42, 2.89 A7.3226,7.3226 0 0,1 26.66, 10.44 A7.1255,7.1255 0 0,1 27.33, 22.87 A7.8575,7.8575 0 0,1 16.26, 28.84 A6.8435,6.8435 0 0,1 5.8, 22.77 A7.4931,7.4931 0 0,1 5.26, 8.71 A7.1422,7.1422 0 0,1 15.42, 2.89M14.82, 2.3 A10.2098,10.2098 0 0,1 27.03, 9.2 A9.1009,9.1009 0 0,1 28.45, 23.79 A19.476,19.476 0 0,1 16.84, 29.48 A8.2785,8.2785 0 0,1 4.96, 21.82 A9.2096,9.2096 0 0,1 4.24, 8.2 A8.0699,8.0699 0 0,1 16.53, 2.82 Z" stroke="#f1ac4b" stroke-width="3.5" fill="none"/></g><g transform="matrix(0.829, 0.5592, -0.5592, 0.829, 1508.5501, 64.4442)" opacity="1"><path d="M9.3, 2.06 A4.2779,4.2779 0 0,1 16.47, 4.77 A4.12,4.12 0 0,1 17.22, 12.43 A4.2374,4.2374 0 0,1 10.42, 16.53 A4.495,4.495 0 0,1 3.12, 13.81 A4.2591,4.2591 0 0,1 3.17, 6.16 A3.9809,3.9809 0 0,1 9.3, 2.06M9.3, 2.06 A4.2779,4.2779 0 0,1 16.47, 4.77 A4.12,4.12 0 0,1 17.22, 12.43 A4.2374,4.2374 0 0,1 10.42, 16.53 A4.495,4.495 0 0,1 3.12, 13.81 A4.2591,4.2591 0 0,1 3.17, 6.16 A3.9809,3.9809 0 0,1 9.3, 2.06 Z" stroke="#f87777" stroke-width="3.5" fill="none"/></g><g transform="matrix(0.0523, 0.9986, -0.9986, 0.0523, 1927.3895, 199.3913)" opacity="1"><path d="M9.54, 2.45 A5.7075,5.7075 0 0,1 19.12, 3.51 A4.8006,4.8006 0 0,1 22.75, 11.88 A4.8303,4.8303 0 0,1 15.49, 17.36 A5.8523,5.8523 0 0,1 5.8, 16.31 A5.0472,5.0472 0 0,1 2.34, 7.93 A4.9648,4.9648 0 0,1 9.54, 2.45M9.54, 2.45 A5.7075,5.7075 0 0,1 19.12, 3.51 A4.8006,4.8006 0 0,1 22.75, 11.88 A4.8303,4.8303 0 0,1 15.49, 17.36 A5.8523,5.8523 0 0,1 5.8, 16.31 A5.0472,5.0472 0 0,1 2.34, 7.93 A4.9648,4.9648 0 0,1 9.54, 2.45 Z" stroke="#f1ac4b" stroke-width="3.5" fill="none"/></g></svg>