<svg xmlns="http://www.w3.org/2000/svg" direction="ltr" width="559.665896604384" height="255.74905250868153" viewBox="1472.7533340979626 -6.052513548792035 559.665896604384 255.74905250868153" stroke-linecap="round" stroke-linejoin="round" data-color-mode="light" class="tl-container tl-theme__force-sRGB tl-theme__light" style="background-color: transparent;"><defs/><g transform="matrix(1, 0, 0, 1, 1596.5213, 119.3096)" opacity="1"><g transform="scale(1)"><path d="M2.6894,0.2821 T2.2986,2.5464 2.9403,6.927 5.5616,10.4357 9.1258,12.4773 12.9031,12.608 16.2225,10.6455 18.6938,7.2602 19.3486,2.9178 17.8183,-1.2906 15.1165,-4.1411 12.2233,-4.7414 8.5405,-3.9804 6.2805,-3.6624 A1.8277,1.8277 0 0 1 5.7395,-7.2776 T7.9937,-7.635 12.609,-8.1156 17.245,-6.6597 21.0492,-2.5284 22.7775,3.3479 21.6352,9.2955 18.0535,13.8278 12.9957,16.3443 7.3251,16.0076 2.2228,13.0659 -1.4642,7.8667 -2.7957,2.1915 -2.6894,-0.2821 A2.7042,2.7042 0 0 1 2.6894,0.2821 Z" stroke-linecap="round" fill="#1d1d1d"/></g></g><g transform="matrix(1, 0, 0, 1, 1597.6146, 99.0856)" opacity="1"><g transform="scale(1)"><path d="M-2.7005,0.1509 T-2.6988,-2.1046 -2.1594,-7.5525 -0.5332,-14.1237 2.2051,-20.7786 6.5318,-26.7418 11.9979,-30.7984 17.41,-31.9925 22.1166,-30.0808 25.2925,-25.5563 26.2804,-18.9997 25.3088,-12.1577 23.44,-6.9024 21.4108,-3.0659 19.1718,0.3684 17.9606,2.1479 A1.8854,1.8854 0 0 1 14.8394,0.0321 T16.0439,-1.752 18.2457,-4.8683 20.1366,-8.1352 21.8105,-12.7355 22.7664,-18.5117 22.2595,-23.6915 20.3992,-27.0026 17.6756,-28.497 14.0059,-27.7041 9.6511,-24.445 6.0087,-19.2487 3.7207,-13.1768 2.52,-7.3509 2.448,-2.3825 2.7005,-0.1509 A2.7048,2.7048 0 0 1 -2.7005,0.1509 Z" stroke-linecap="round" fill="#4ba1f1"/></g></g><g transform="matrix(1, 0, 0, 1, 1627.6773, 111.1107)" opacity="1"><g transform="scale(1)"><path d="M-1.4648,-2.4406 T1.1155,-3.8183 8.6446,-6.4132 18.3873,-8.099 27.2877,-8.1663 34.4706,-6.4208 39.2866,-2.561 40.19,3.3838 36.6765,9.8276 30.0814,15.2083 21.8378,18.9764 13.0726,20.759 5.9832,21.0785 0.2817,20.9438 -2.77,20.8702 A1.7406,1.7406 0 0 1 -2.69,17.3898 T0.3619,17.4565 5.8805,17.5798 12.3987,17.3195 20.3993,15.7479 27.8534,12.4281 33.6264,7.9816 36.8129,3.2344 36.7462,-0.395 33.3668,-2.6761 27.3117,-3.9708 19.2038,-3.6753 10.5147,-1.9447 3.8686,0.8269 1.4648,2.4406 A2.8464,2.8464 0 0 1 -1.4648,-2.4406 Z" stroke-linecap="round" fill="#4ba1f1"/></g></g><g transform="matrix(1, 0, 0, 1, 1622.7579, 139.5336)" opacity="1"><g transform="scale(1)"><path d="M1.3916,-2.3186 T3.8205,-0.7115 8.5891,3.0313 12.7445,7.6853 15.7998,12.9019 17.7077,18.2662 18.5978,23.4362 18.4147,28.5626 17.5916,32.9928 16.3102,36.1718 13.6974,38.1806 9.8952,38.3305 5.5577,36.3925 0.9162,32.8574 -3.6251,28.0696 -7.6252,22.3573 -10.7916,16.5733 -13.7156,10.5827 -15.2886,7.3667 A1.8174,1.8174 0 0 1 -12.0314,5.7533 T-10.4263,8.9535 -7.5083,14.7573 -4.4801,20.1139 -0.7561,25.2579 3.4025,29.4287 7.4272,32.2859 11.3571,33.537 13.9018,32.1618 14.7414,28.44 14.865,24.0796 14.0223,19.598 12.2839,15.0077 9.5584,10.6346 5.8369,6.8222 1.1636,3.7029 -1.3916,2.3186 A2.7042,2.7042 0 0 1 1.3916,-2.3186 Z" stroke-linecap="round" fill="#4ba1f1"/></g></g><g transform="matrix(1, 0, 0, 1, 1637.5159, 138.4404)" opacity="1"><g transform="scale(1)"><defs><clipPath id="_export_9_r1mq__shape_RUM8FVaO0XYiOCe7AfYpR_clip"><path d="M-100,-100 h234.435463941649 v206.5591369817866 h-234.435463941649 ZM 35.09137763982766 3.1155905876216927 L 33.77955024347035 10.002683375951495"/></clipPath></defs><g fill="none" stroke="#4ba1f1" stroke-width="3.5" stroke-linejoin="round" stroke-linecap="round" pointer-events="none"><g style="clip-path: url(&quot;#_export_9_r1mq__shape_RUM8FVaO0XYiOCe7AfYpR_clip&quot;);"><rect x="-100" y="-100" width="234.4355" height="206.5591" opacity="0"/><path d="M0,0L34.435463941649004,6.559136981786594" stroke-dasharray="none" stroke-dashoffset="none"/></g><path d="M 35.09137763982766 3.1155905876216927 L 33.77955024347035 10.002683375951495"/></g></g></g><g transform="matrix(1, 0, 0, 1, 1597.6146, 146.0927)" opacity="1"><g transform="scale(1)"><path d="M2.2472,1.7471 T0.3888,3.9021 -4.1829,8.8963 -10.1838,14.5554 -17.2023,19.8078 -23.775,23.573 -29.0194,25.4012 -33.254,24.4423 -34.9148,21.2318 -32.81,16.9332 -28.7077,12.2486 -24.2324,8.0876 -20.1773,4.6115 -16.3723,1.4233 -14.3161,-0.3075 A1.8395,1.8395 0 0 1 -11.9239,2.4875 T-13.9514,4.2519 -17.6532,7.4888 -21.4864,10.9536 -25.56,14.9663 -29.4174,19.5946 -29.8318,21.7836 -25.7559,20.0953 -19.7811,16.4742 -13.3572,11.3592 -7.9338,5.7563 -3.8772,0.5849 -2.2472,-1.7471 A2.8464,2.8464 0 0 1 2.2472,1.7471 Z" stroke-linecap="round" fill="#4ba1f1"/></g></g><g transform="matrix(1, 0, 0, 1, 1587.7758, 130.2415)" opacity="1"><g transform="scale(1)"><path d="M-1.0375,2.6506 T-3.8513,1.3941 -9.6572,-1.4944 -15.706,-5.3281 -21.713,-10.421 -27.0555,-16.7181 -31.0196,-23.6944 -32.9411,-29.9453 -32.452,-34.6284 -29.4555,-37.6735 -23.8868,-37.7839 -17.6226,-35.252 -12.3311,-31.7442 -7.9543,-28.0424 -4.6588,-24.9337 -1.7884,-22.0382 -0.2749,-20.4574 A1.9041,1.9041 0 0 1 -3.0051,-17.8026 T-4.5429,-19.3598 -7.2816,-22.2327 -10.332,-25.215 -14.4099,-28.5856 -19.1612,-31.6661 -24.0319,-33.9105 -28.0344,-33.7634 -29.4013,-30.7571 -27.6785,-25.5765 -24.0298,-19.3263 -19.0498,-13.6822 -13.4076,-9.1967 -7.6653,-5.9596 -1.8806,-3.6377 1.0375,-2.6506 A2.8464,2.8464 0 0 1 -1.0375,2.6506 Z" stroke-linecap="round" fill="#4ba1f1"/></g></g><g transform="matrix(1, 0, 0, 1, 1766.5122, 82.1412)" opacity="1"><g transform="scale(1)"><path d="M-2.6526,1.0325 T-3.3921,-1.2666 -4.6833,-6.7622 -5.3769,-15.3742 -4.8138,-26.4114 -2.6878,-36.8971 0.2854,-45.3046 3.2108,-51.1809 5.4148,-54.8718 7.4931,-57.2093 8.7406,-58.1886 A2.2998,2.2998 0 0 1 11.029,-54.1988 T9.4057,-52.9279 6.5516,-49.5012 3.9132,-44.0128 1.2354,-36.1144 -0.6053,-26.2491 -0.9133,-15.9118 -0.006,-8.1412 1.6457,-3.2205 2.6526,-1.0325 A2.8464,2.8464 0 0 1 -2.6526,1.0325 ZM11.7901,-57.4816 T12.3489,-56.767 13.4545,-53.8954 14.266,-48.9103 14.7742,-41.9354 15.0138,-34.002 14.6171,-26.8311 13.4877,-20.4328 11.8362,-14.7675 10.2167,-10.2727 8.7463,-6.294 7.5528,-2.9803 7.1251,-1.8021 A2.3923,2.3923 0 0 1 2.7149,-3.6579 T3.2584,-4.7875 4.8855,-7.8975 6.7152,-11.5834 8.291,-15.7863 9.7637,-21.0716 10.7144,-27.0157 10.9308,-33.8238 10.4701,-41.5032 9.4595,-49.4857 8.3989,-54.1732 7.9795,-54.9058 A2.2998,2.2998 0 0 1 11.7901,-57.4816 Z" stroke-linecap="round" fill="#f1ac4b"/></g></g><g transform="matrix(1, 0, 0, 1, 1793.842, 101.272)" opacity="1"><g transform="scale(1)"><path d="M-2.1867,-1.8222 T-0.2047,-3.9748 4.7415,-8.6448 11.0958,-13.512 18.397,-17.9045 25.5015,-21.0651 30.9288,-22.775 34.6944,-23.6767 38.1467,-23.9619 41.5452,-22.7129 43.2815,-20.015 43.004,-16.8008 41.1304,-13.1685 37.5851,-9.1525 31.6295,-4.2586 23.969,0.9846 16.4016,5.4299 10.001,8.7153 4.0353,11.5847 0.8157,13.14 A1.8496,1.8496 0 0 1 -0.8157,9.82 T2.3827,8.2216 8.2146,5.2938 14.3336,1.99 21.5319,-2.4669 28.6418,-7.6282 33.8024,-12.2372 36.9117,-16.9139 36.217,-19.68 32.102,-19.0955 27.136,-17.4108 20.6338,-14.3315 13.9203,-10.003 8.2594,-5.26 3.9439,-0.5123 2.1867,1.8222 A2.8464,2.8464 0 0 1 -2.1867,-1.8222 Z" stroke-linecap="round" fill="#f1ac4b"/></g></g><g transform="matrix(1, 0, 0, 1, 1771.9782, 141.7199)" opacity="1"><g transform="scale(1)"><path d="M2.8464,0 T2.702,3.4883 2.6935,11.0445 3.7265,19.0478 6.0564,26.4523 9.1091,32.7978 12.4364,37.9499 15.4501,41.5307 18.164,43.7576 19.5931,42.9528 19.8832,38.9818 19.8423,33.9129 18.5392,27.5852 15.6622,19.4331 12.015,10.9954 8.6995,4.4352 5.7765,0.1483 2.6285,-3.3597 0.8514,-5.3528 A1.8025,1.8025 0 0 1 3.5286,-7.7672 T5.3281,-5.7944 8.7547,-2.0121 12.0523,2.6754 15.5951,9.4016 19.5173,18.0614 22.7673,26.6778 24.479,33.7644 24.9337,39.6069 24.5206,44.1111 22.6036,47.8027 18.9969,48.992 15.4447,46.9915 12.5349,44.0405 9.2324,40.0864 5.5259,34.5899 2.0613,27.7815 -0.7155,19.7155 -2.1965,11.1915 -2.702,3.4885 -2.8464,0 A2.8464,2.8464 0 0 1 2.8464,0 Z" stroke-linecap="round" fill="#f1ac4b"/></g></g><g transform="matrix(1, 0, 0, 1, 1742.4621, 129.6949)" opacity="1"><g transform="scale(1)"><path d="M0.2683,2.6908 T-2.2327,2.8115 -8.0178,3.8062 -15.4892,6.2506 -23.7898,9.8836 -31.7494,14.2923 -38.0471,18.3908 -41.9081,21.369 -41.3946,22.4413 -37.6249,22.1714 -33.2,21.1203 -26.2243,17.5004 -17.8903,11.9872 -10.9511,6.6501 -6.0868,2.312 -3.3191,-0.7625 -2.2606,-2.8098 -2.1077,-3.6116 A2.2847,2.2847 0 0 1 2.1077,-1.8484 T1.4367,-0.6804 -0.394,1.8152 -3.4882,5.122 -8.4858,9.7647 -15.5508,15.4377 -24.2507,21.4543 -32.0909,25.7428 -37.4908,27.3179 -42.1581,27.3181 -45.9385,26.5274 -47.8344,24.5116 -47.0852,21.3002 -44.2571,18.3614 -40.1676,15.2375 -33.6861,10.8685 -25.4808,6.1327 -16.8914,2.1179 -8.8979,-0.7952 -2.7514,-2.3145 -0.2683,-2.6908 A2.7042,2.7042 0 0 1 0.2683,2.6908 Z" stroke-linecap="round" fill="#f1ac4b"/></g></g><g transform="matrix(1, 0, 0, 1, 1737.5428, 101.272)" opacity="1"><g transform="scale(1)"><path d="M-0.5875,2.6396 T-2.8032,2.0156 -8.3088,0.6575 -15.5903,-1.6808 -24.1533,-7.1653 -31.9219,-15.0731 -37.009,-22.8777 -39.8958,-29.1886 -41.5193,-33.1944 -42.2517,-36.9917 -40.5281,-41.0329 -36.9889,-42.993 -31.8207,-42.5671 -24.5902,-40.332 -17.1076,-36.3526 -10.0334,-31.2375 -3.466,-25.5504 1.9704,-20.3139 5.6898,-16.4625 8.5241,-13.219 11.3953,-9.6482 12.919,-7.7195 A1.848,1.848 0 0 1 10.041,-5.4005 T8.4805,-7.2994 5.6821,-10.7646 3.0145,-13.878 -0.6306,-17.5881 -5.9825,-22.5881 -12.3729,-27.9308 -19.0426,-32.5546 -25.8271,-35.941 -31.9893,-37.6229 -36.5817,-37.0102 -37.9364,-34.5347 -36.5218,-30.7107 -33.8241,-24.9169 -29.1064,-17.7962 -22.0536,-10.6404 -14.3605,-5.8446 -7.3425,-3.9459 -1.6838,-3.0142 0.5875,-2.6396 A2.7042,2.7042 0 0 1 -0.5875,2.6396 Z" stroke-linecap="round" fill="#f1ac4b"/></g></g><g transform="matrix(1, 0, 0, 1, 1891.6823, 145.5461)" opacity="1"><g transform="scale(1)"><path d="M2.4767,0.7727 T1.779,2.7435 0.7604,6.1699 1.1994,9.2062 3.2236,11.8657 6.1265,13.1788 9.561,12.8703 12.698,10.6879 13.1113,7.39 10.1393,5.2085 5.9343,4.8001 0.8352,5.0267 -2.103,5.1383 A1.8603,1.8603 0 0 1 -2.277,1.4217 T0.6588,1.2584 6.3577,0.9796 12.0037,1.7528 16.3953,4.4975 17.4592,8.832 14.8743,13.6181 9.9663,16.6881 4.5718,16.8729 -0.054,14.5074 -3.1684,9.9525 -3.9274,5.2256 -3.0239,1.2465 -2.4767,-0.7727 A2.5945,2.5945 0 0 1 2.4767,0.7727 Z" stroke-linecap="round" fill="#1d1d1d"/></g></g><g transform="matrix(1, 0, 0, 1, 1888.9494, 125.8687)" opacity="1"><g transform="scale(1)"><path d="M-2.6122,-0.146 T-2.362,-2.4165 -0.9491,-7.0978 2.3672,-11.0669 7.5302,-13.1239 13.7032,-12.8959 19.9608,-9.7379 24.8465,-4.6297 27.5941,0.4415 28.7511,5.0909 28.4022,9.1697 27.2059,12.7126 26.5593,14.4321 A2.1059,2.1059 0 0 1 22.6407,12.8879 T23.9203,10.1478 25.1877,5.763 24.3654,2.092 22.1001,-2.1718 18.2318,-6.4279 13.4351,-9.0251 8.9108,-9.3008 5.4073,-8.1682 3.329,-5.8129 2.6128,-2.0706 2.6122,0.146 A2.6163,2.6163 0 0 1 -2.6122,-0.146 Z" stroke-linecap="round" fill="#f87777"/></g></g><g transform="matrix(1, 0, 0, 1, 1923.3848, 142.2665)" opacity="1"><g transform="scale(1)"><path d="M-0.3318,-2.6636 T1.7205,-2.835 6.2686,-2.2435 10.7275,0.5907 13.6987,4.9012 14.9992,9.3982 14.582,14.1026 12.3416,18.6717 8.7647,22.4581 5.189,25.2653 1.8486,27.6619 0.0377,28.9155 A1.9456,1.9456 0 0 1 -2.2177,25.7445 T-0.4394,24.4452 2.8179,22.149 5.9539,19.7962 8.763,16.8469 10.4662,13.6192 10.8858,10.4037 10.0614,7.2157 8.2045,4.2729 5.6239,2.4747 2.2695,2.338 0.3318,2.6636 A2.6842,2.6842 0 0 1 -0.3318,-2.6636 Z" stroke-linecap="round" fill="#f87777"/></g></g><g transform="matrix(1, 0, 0, 1, 1915.1859, 170.1429)" opacity="1"><g transform="scale(1)"><path d="M2.4079,-1.2832 T3.3254,0.6659 4.5601,5.7089 4.1797,11.6126 1.8445,16.913 -2.0793,21.296 -7.387,24.0058 -13.0577,24.122 -17.6127,21.4585 -20.6175,17.2229 -22.3403,12.9277 -22.8498,9.011 -21.6998,4.6599 -20.664,2.2035 A2.3456,2.3456 0 0 1 -16.496,4.3565 T-17.1391,5.4569 -18.562,8.2867 -18.9119,11.7251 -17.6441,15.2698 -15.6126,18.5722 -12.7453,20.6034 -8.896,20.6403 -4.9438,18.6191 -1.9212,15.2275 -0.1966,11.2743 0.0123,7.0412 -1.3327,3.0733 -2.4079,1.2832 A2.7285,2.7285 0 0 1 2.4079,-1.2832 Z" stroke-linecap="round" fill="#f87777"/></g></g><g transform="matrix(1, 0, 0, 1, 1879.6572, 126.9619)" opacity="1"><g transform="scale(1)"><path d="M-0.6881,2.7522 T-2.1473,2.3669 -5.4739,2.7099 -8.5789,6.3923 -9.7208,11.3427 -9.0474,15.2256 -7.2884,18.4847 -4.4878,21.8758 -2.8685,23.8944 A1.9509,1.9509 0 0 1 -5.8715,26.3856 T-7.5563,24.4214 -10.8295,20.4911 -13.2598,16.102 -14.3276,10.9635 -13.8164,5.2231 -11.5446,0.4035 -8.1311,-2.2846 -4.3143,-3.3277 -0.844,-3.1147 0.6881,-2.7522 A2.8369,2.8369 0 0 1 -0.6881,2.7522 Z" stroke-linecap="round" fill="#f87777"/></g></g><g transform="matrix(1, 0, 0, 1, 1871.4583, 157.5712)" opacity="1"><g transform="scale(1)"><path d="M2.2904,1.3372 T1.4147,2.7698 0.3535,6.2348 0.6674,10.2746 2.2763,13.8922 4.9189,16.4299 8.1197,17.6146 12.6964,17.4032 15.6054,16.9346 A2.209,2.209 0 0 1 16.0946,21.3254 T14.346,21.4921 10.8379,21.7383 6.7415,21.2996 2.2399,19.3696 -1.4892,15.7206 -3.8056,10.7152 -4.295,4.8636 -3.1612,0.2215 -2.2904,-1.3372 A2.6522,2.6522 0 0 1 2.2904,1.3372 Z" stroke-linecap="round" fill="#f87777"/></g></g><g transform="matrix(1, 0, 0, 1, 1764.3259, 98.539)" opacity="1"><g transform="scale(1)"><path d="M0.9021,2.528 T-0.847,3.1036 -4.314,4.7694 -7.291,7.2135 -9.17,10.1901 -9.7136,13.7235 -8.7648,17.506 -5.6424,20.9143 -1.078,23.0965 3.3919,23.2915 7.2095,21.6547 9.8297,18.317 10.7592,14.1842 9.8358,10.2708 7.4622,6.8499 4.176,4.4489 -0.0411,2.2583 -2.4505,0.9798 A1.7313,1.7313 0 0 1 -0.8295,-2.0798 T1.5816,-0.8044 6.2256,1.6998 10.2837,4.9139 13.1624,9.5181 14.1068,14.8578 12.5183,20.4085 8.6739,24.7954 3.3492,26.8218 -2.574,26.416 -8.4055,23.3697 -12.4734,18.5416 -13.7444,13.135 -12.8781,8.025 -10.3378,3.8221 -6.5577,0.3949 -2.6414,-1.8587 -0.9021,-2.528 A2.6841,2.6841 0 0 1 0.9021,2.528 Z" stroke-linecap="round" fill="#1d1d1d"/></g></g><g transform="matrix(1, 0, 0, 1, 1622.7579, 101.8186)" opacity="1"><g transform="scale(1)"><defs><clipPath id="_export_9_r1mq__shape_QmMjePENeelkEPhFzO6CP_clip"><path d="M-100,-122.4104 h218.0375902108001 v222.41035167381148 h-218.0375902108001 ZM 15.796555043418943 -24.214110694891485 L 20.27862537818124 -20.606592652731468"/></clipPath></defs><g fill="none" stroke="#4ba1f1" stroke-width="3.5" stroke-linejoin="round" stroke-linecap="round" pointer-events="none"><g style="clip-path: url(&quot;#_export_9_r1mq__shape_QmMjePENeelkEPhFzO6CP_clip&quot;);"><rect x="-100" y="-122.4104" width="218.0376" height="222.4104" opacity="0"/><path d="M0,0L18.03759021080009,-22.410351673811476" stroke-dasharray="none" stroke-dashoffset="none"/></g><path d="M 15.796555043418943 -24.214110694891485 L 20.27862537818124 -20.606592652731468"/></g></g></g><g transform="matrix(1, 0, 0, 1, 1589.9622, 99.0856)" opacity="1"><g transform="scale(1)"><defs><clipPath id="_export_9_r1mq__shape_CN8pmtjQhR6os3T1wMkQE_clip"><path d="M-110.9319,-124.0502 h210.93188801933707 v224.0501515574494 h-210.93188801933707 ZM -13.336903175082005 -22.95696275551569 L -8.526872863592127 -25.143340359383103"/></clipPath></defs><g fill="none" stroke="#4ba1f1" stroke-width="3.5" stroke-linejoin="round" stroke-linecap="round" pointer-events="none"><g style="clip-path: url(&quot;#_export_9_r1mq__shape_CN8pmtjQhR6os3T1wMkQE_clip&quot;);"><rect x="-110.9319" y="-124.0502" width="210.9319" height="224.0502" opacity="0"/><path d="M0,0L-10.931888019337066,-24.050151557449396" stroke-dasharray="none" stroke-dashoffset="none"/></g><path d="M -13.336903175082005 -22.95696275551569 L -8.526872863592127 -25.143340359383103"/></g></g></g><g transform="matrix(1, 0, 0, 1, 1601.4407, 151.5586)" opacity="1"><g transform="scale(1)"><defs><clipPath id="_export_9_r1mq__shape_g2YW6Qz6rBloLP7fn0AUK_clip"><path d="M-100.5466,-100 h201 v227.8763269598625 h-201 ZM 2.2410466353880487 27.930985565922317 L -3.334218756584452 27.821668353802675"/></clipPath></defs><g fill="none" stroke="#4ba1f1" stroke-width="3.5" stroke-linejoin="round" stroke-linecap="round" pointer-events="none"><g style="clip-path: url(&quot;#_export_9_r1mq__shape_g2YW6Qz6rBloLP7fn0AUK_clip&quot;);"><rect x="-100.5466" y="-100" width="201" height="227.8763" opacity="0"/><path d="M0,0L-0.5465860605982016,27.876326959862496" stroke-dasharray="none" stroke-dashoffset="none"/></g><path d="M 2.2410466353880487 27.930985565922317 L -3.334218756584452 27.821668353802675"/></g></g></g><g transform="matrix(1, 0, 0, 1, 1578.4838, 138.4404)" opacity="1"><g transform="scale(1)"><defs><clipPath id="_export_9_r1mq__shape_qbbBHxzWWkNadu8-41uEb_clip"><path d="M-130.0627,-100 h230.0627129040986 v202.73297200483427 h-230.0627129040986 ZM -29.789415703615163 5.739243295244126 L -30.336010104582016 -0.27329928557559313"/></clipPath></defs><g fill="none" stroke="#4ba1f1" stroke-width="3.5" stroke-linejoin="round" stroke-linecap="round" pointer-events="none"><g style="clip-path: url(&quot;#_export_9_r1mq__shape_qbbBHxzWWkNadu8-41uEb_clip&quot;);"><rect x="-130.0627" y="-100" width="230.0627" height="202.733" opacity="0"/><path d="M0,0L-30.06271290409859,2.7329720048342665" stroke-dasharray="none" stroke-dashoffset="none"/></g><path d="M -29.789415703615163 5.739243295244126 L -30.336010104582016 -0.27329928557559313"/></g></g></g><g transform="matrix(1, 0, 0, 1, 1779.0839, 85.9673)" opacity="1"><g transform="scale(1)"><defs><clipPath id="_export_9_r1mq__shape_H_AQuTFOQzsdvD10JOqSB_clip"><path d="M-100,-116.3978 h214.21144608476948 v216.3978320290056 h-214.21144608476948 ZM 12.571662881868917 -17.818976637482546 L 15.851229287670037 -14.976687420528652"/></clipPath></defs><g fill="none" stroke="#f1ac4b" stroke-width="3.5" stroke-linejoin="round" stroke-linecap="round" pointer-events="none"><g style="clip-path: url(&quot;#_export_9_r1mq__shape_H_AQuTFOQzsdvD10JOqSB_clip&quot;);"><rect x="-100" y="-116.3978" width="214.2114" height="216.3978" opacity="0"/><path d="M0,0L14.211446084769477,-16.3978320290056" stroke-dasharray="none" stroke-dashoffset="none"/></g><path d="M 12.571662881868917 -17.818976637482546 L 15.851229287670037 -14.976687420528652"/></g></g></g><g transform="matrix(1, 0, 0, 1, 1788.9226, 123.6823)" opacity="1"><g transform="scale(1)"><defs><clipPath id="_export_9_r1mq__shape_bhU8LXwnOua5y3-cqJZ8D_clip"><path d="M-100,-100 h211.47847407993527 v212.57164620113164 h-211.47847407993527 ZM 12.770822951836655 11.391674000910294 L 10.18612520803388 13.75161840135299"/></clipPath></defs><g fill="none" stroke="#f1ac4b" stroke-width="3.5" stroke-linejoin="round" stroke-linecap="round" pointer-events="none"><g style="clip-path: url(&quot;#_export_9_r1mq__shape_bhU8LXwnOua5y3-cqJZ8D_clip&quot;);"><rect x="-100" y="-100" width="211.4785" height="212.5716" opacity="0"/><path d="M0,0L11.478474079935268,12.571646201131642" stroke-dasharray="none" stroke-dashoffset="none"/></g><path d="M 12.770822951836655 11.391674000910294 L 10.18612520803388 13.75161840135299"/></g></g></g><g transform="matrix(1, 0, 0, 1, 1757.7667, 140.0802)" opacity="1"><g transform="scale(1)"><defs><clipPath id="_export_9_r1mq__shape_Hjub7y9BvvGHj3JLaOWc6_clip"><path d="M-107.6523,-100 h207.65228825206123 v214.7580321453677 h-207.65228825206123 ZM -6.098716758950911 15.563585132945176 L -9.20585974517154 13.952479157790238"/></clipPath></defs><g fill="none" stroke="#f1ac4b" stroke-width="3.5" stroke-linejoin="round" stroke-linecap="round" pointer-events="none"><g style="clip-path: url(&quot;#_export_9_r1mq__shape_Hjub7y9BvvGHj3JLaOWc6_clip&quot;);"><rect x="-107.6523" y="-100" width="207.6523" height="214.758" opacity="0"/><path d="M0,0L-7.652288252061226,14.758032145367707" stroke-dasharray="none" stroke-dashoffset="none"/></g><path d="M -6.098716758950911 15.563585132945176 L -9.20585974517154 13.952479157790238"/></g></g></g><g transform="matrix(1, 0, 0, 1, 1734.8097, 110.5641)" opacity="1"><g transform="scale(1)"><defs><clipPath id="_export_9_r1mq__shape_DPocCZ85mqHNdJDC1OcMq_clip"><path d="M-118.0376,-100 h218.03763191264352 v202.1863650933144 h-218.03763191264352 ZM -17.81899540331208 3.990128284578759 L -18.25626842197496 0.3826019020500553"/></clipPath></defs><g fill="none" stroke="#f1ac4b" stroke-width="3.5" stroke-linejoin="round" stroke-linecap="round" pointer-events="none"><g style="clip-path: url(&quot;#_export_9_r1mq__shape_DPocCZ85mqHNdJDC1OcMq_clip&quot;);"><rect x="-118.0376" y="-100" width="218.0376" height="202.1864" opacity="0"/><path d="M0,0L-18.03763191264352,2.186365093314407" stroke-dasharray="none" stroke-dashoffset="none"/></g><path d="M -17.81899540331208 3.990128284578759 L -18.25626842197496 0.3826019020500553"/></g></g></g><g transform="matrix(1, 0, 0, 1, 1757.2201, 79.4082)" opacity="1"><g transform="scale(1)"><defs><clipPath id="_export_9_r1mq__shape_EWMfwLBA9p2EfiYPsHeBI_clip"><path d="M-113.6649,-110.9319 h209.29217153938635 v215.30459735504422 h-209.29217153938635 ZM -15.195361461519584 -10.002650014476787 L -12.134441990510735 -11.861084322354058"/></clipPath></defs><g fill="none" stroke="#f1ac4b" stroke-width="3.5" stroke-linejoin="round" stroke-linecap="round" pointer-events="none"><g style="clip-path: url(&quot;#_export_9_r1mq__shape_EWMfwLBA9p2EfiYPsHeBI_clip&quot;);"><rect x="-113.6649" y="-110.9319" width="209.2922" height="215.3046" opacity="0"/><path d="M-4.372730186628814,4.372730186628814L-13.66490172601516,-10.931867168415422" stroke-dasharray="none" stroke-dashoffset="none"/></g><path d="M -15.195361461519584 -10.002650014476787 L -12.134441990510735 -11.861084322354058"/></g></g></g><g transform="matrix(1, 0, 0, 1, 1882.9367, 109.4708)" opacity="1"><g transform="scale(1)"><defs><clipPath id="_export_9_r1mq__shape_FiNa5PDZEz9CqzyxJfveu_clip"><path d="M-100,-120.7706 h212.02510184237667 v220.77060391747773 h-212.02510184237667 ZM 9.948041450628898 -21.973114101715396 L 14.102162234124444 -19.56809373324006"/></clipPath></defs><g fill="none" stroke="#f87777" stroke-width="3.5" stroke-linejoin="round" stroke-linecap="round" pointer-events="none"><g style="clip-path: url(&quot;#_export_9_r1mq__shape_FiNa5PDZEz9CqzyxJfveu_clip&quot;);"><rect x="-100" y="-120.7706" width="212.0251" height="220.7706" opacity="0"/><path d="M0,0L12.025101842376671,-20.77060391747773" stroke-dasharray="none" stroke-dashoffset="none"/></g><path d="M 9.948041450628898 -21.973114101715396 L 14.102162234124444 -19.56809373324006"/></g></g></g><g transform="matrix(1, 0, 0, 1, 1925.0247, 128.6016)" opacity="1"><g transform="scale(1)"><defs><clipPath id="_export_9_r1mq__shape_R1ec31Pex0lLZPrs4Uc-0_clip"><path d="M-100,-100 h226.78309228590115 v206.0125300702667 h-226.78309228590115 ZM 27.38434529292782 3.3342208416765917 L 26.181839278874477 8.69083929885682"/></clipPath></defs><g fill="none" stroke="#f87777" stroke-width="3.5" stroke-linejoin="round" stroke-linecap="round" pointer-events="none"><g style="clip-path: url(&quot;#_export_9_r1mq__shape_R1ec31Pex0lLZPrs4Uc-0_clip&quot;);"><rect x="-100" y="-100" width="226.7831" height="206.0125" opacity="0"/><path d="M0,0L26.783092285901148,6.012530070266706" stroke-dasharray="none" stroke-dashoffset="none"/></g><path d="M 27.38434529292782 3.3342208416765917 L 26.181839278874477 8.69083929885682"/></g></g></g><g transform="matrix(1, 0, 0, 1, 1929.9439, 179.4349)" opacity="1"><g transform="scale(1)"><defs><clipPath id="_export_9_r1mq__shape_vmJirRPhEmlU4spoY7y4a_clip"><path d="M-100.5466,-100 h201 v225.68994101562646 h-201 ZM 2.022366339121243 25.7446037918706 L -3.1156218640040496 25.63527823938232"/></clipPath></defs><g fill="none" stroke="#f87777" stroke-width="3.5" stroke-linejoin="round" stroke-linecap="round" pointer-events="none"><g style="clip-path: url(&quot;#_export_9_r1mq__shape_vmJirRPhEmlU4spoY7y4a_clip&quot;);"><rect x="-100.5466" y="-100" width="201" height="225.6899" opacity="0"/><path d="M0,0L-0.5466277624414033,25.68994101562646" stroke-dasharray="none" stroke-dashoffset="none"/></g><path d="M 2.022366339121243 25.7446037918706 L -3.1156218640040496 25.63527823938232"/></g></g></g><g transform="matrix(1, 0, 0, 1, 1881.297, 188.7271)" opacity="1"><g transform="scale(1)"><defs><clipPath id="_export_9_r1mq__shape_XZcJeOUroit5JflgHMKrG_clip"><path d="M-129.5161,-100 h229.5161059925788 v208.1989160145028 h-229.5161059925788 ZM -28.696214391128507 11.150526613760679 L -30.335997594029067 5.24730541524492"/></clipPath></defs><g fill="none" stroke="#f87777" stroke-width="3.5" stroke-linejoin="round" stroke-linecap="round" pointer-events="none"><g style="clip-path: url(&quot;#_export_9_r1mq__shape_XZcJeOUroit5JflgHMKrG_clip&quot;);"><rect x="-129.5161" y="-100" width="229.5161" height="208.1989" opacity="0"/><path d="M0,0L-29.516105992578787,8.1989160145028" stroke-dasharray="none" stroke-dashoffset="none"/></g><path d="M -28.696214391128507 11.150526613760679 L -30.335997594029067 5.24730541524492"/></g></g></g><g transform="matrix(1, 0, 0, 1, 1863.2594, 157.0246)" opacity="1"><g transform="scale(1)"><defs><clipPath id="_export_9_r1mq__shape_fHmA1IJYBE19043WJQ5iL_clip"><path d="M-120.224,-129.5161 h220.22397615503633 v229.51610599257876 h-220.22397615503633 ZM -23.1755867542942 -27.493708377075126 L -17.27236555577845 -31.53850360808239"/></clipPath></defs><g fill="none" stroke="#f87777" stroke-width="3.5" stroke-linejoin="round" stroke-linecap="round" pointer-events="none"><g style="clip-path: url(&quot;#_export_9_r1mq__shape_fHmA1IJYBE19043WJQ5iL_clip&quot;);"><rect x="-120.224" y="-129.5161" width="220.224" height="229.5161" opacity="0"/><path d="M0,0L-20.223976155036326,-29.51610599257876" stroke-dasharray="none" stroke-dashoffset="none"/></g><path d="M -23.1755867542942 -27.493708377075126 L -17.27236555577845 -31.53850360808239"/></g></g></g><g transform="matrix(1, 0, 0, 1, 1982.9636, 187.0873)" opacity="1"><g transform="scale(1)"><path d="M-1.1163,1.434 T-2.2011,0.501 -4.8632,-2.5973 -7.7366,-6.9116 -9.8728,-10.8979 -11.2119,-13.9287 -11.2209,-16.4543 -9.2026,-17.2612 -6.591,-15.5589 -4.6923,-12.9261 -3.221,-10.0834 -1.9552,-7.4731 -0.5846,-4.7172 0.1761,-3.1844 A1.607,1.607 0 0 1 -2.8258,-2.0363 T-3.2892,-3.5417 -4.3656,-6.2704 -5.6487,-8.7679 -7.0271,-11.1904 -8.645,-13.6686 -9.3183,-15.4106 -8.6727,-14.8638 -7.4339,-12.247 -5.2925,-8.6011 -2.5908,-4.8371 -0.0424,-2.2474 1.1163,-1.434 A1.8173,1.8173 0 0 1 -1.1163,1.434 ZM-2.9018,-2.9197 T-2.7523,-3.8267 -2.0511,-6.1889 -0.673,-9.4167 1.1092,-13.1343 3.5155,-17.0958 6.1594,-20.3435 8.2939,-22.3358 10.7902,-23.0756 12.7118,-21.9422 12.8113,-19.3179 11.9608,-16.4215 10.6616,-13.6895 9.1699,-10.9976 7.7223,-8.6921 6.4157,-7.0297 5.0238,-5.46 3.9658,-4.2426 3.6648,-3.8939 A1.7662,1.7662 0 0 1 1.1722,-6.3967 T1.925,-7.0398 3.7307,-8.5712 5.4085,-10.204 6.7194,-12.2793 8.0017,-14.8909 9.0522,-17.3312 9.7424,-19.8931 10.3535,-21.077 9.9526,-20.3436 8.1361,-18.7143 5.8139,-15.7573 3.6681,-11.9761 2.12,-8.3344 1.0481,-5.3601 0.4559,-3.1951 0.252,-2.301 A1.607,1.607 0 0 1 -2.9018,-2.9197 ZM3.4536,-6.5764 T3.5303,-6.5329 3.607,-6.4895 A1.7857,1.7857 0 0 1 1.514,-3.5956 T1.4487,-3.6549 1.3834,-3.7142 A1.7662,1.7662 0 0 1 3.4536,-6.5764 ZM2.1821,-6.7877 T3.4433,-7.1032 5.7961,-7.6234 8.3316,-7.9092 11.4883,-7.8561 14.6675,-7.2488 17.11,-6.0232 18.5372,-4.0262 18.3015,-1.313 16.2958,1.147 13.2631,2.6279 9.85,3.213 6.8447,3.2614 4.4478,2.9405 2.633,2.3976 1.909,2.1286 A1.6031,1.6031 0 0 1 3.2281,-0.7938 T4.4699,-0.21 6.8323,0.4562 9.34,0.4104 11.9372,-0.0914 13.9927,-1.0611 14.965,-2.7806 14.0709,-4.2441 11.5655,-4.5698 8.8494,-4.3959 6.5406,-3.9985 4.2012,-3.5291 2.939,-3.2974 A1.7857,1.7857 0 0 1 2.1821,-6.7877 ZM3.7627,1.737 T3.6885,1.8443 3.6144,1.9516 A1.6359,1.6359 0 0 1 1.1774,-0.2313 T1.2759,-0.3168 1.3744,-0.4022 A1.6031,1.6031 0 0 1 3.7627,1.737 ZM4.0063,0.5724 T4.1186,0.9909 4.585,2.5303 5.1468,5.2086 5.4318,8.3457 5.5489,11.404 5.3522,14.4273 4.7332,17.0646 3.2654,18.9974 1.0013,19.64 -1.1374,18.1541 -2.4766,14.6729 -3.0006,10.7626 -3.2324,7.6122 -3.4168,5.1542 -3.3086,2.4348 -3.103,0.7405 A1.7058,1.7058 0 0 1 0.1894,1.6341 T-0.2079,2.8086 -0.5934,4.9833 -0.4679,7.3597 -0.1299,10.3468 1.2755,13.756 2.6444,14.2769 2.7383,11.5786 2.4758,8.7043 2.063,5.9737 1.3422,3.3564 0.8256,1.582 0.7856,1.1478 A1.6359,1.6359 0 0 1 4.0063,0.5724 ZM-3.0961,1.6586 T-3.1541,1.518 -3.212,1.3773 A1.7394,1.7394 0 0 1 0.1314,0.4161 T0.157,0.566 0.1826,0.716 A1.7058,1.7058 0 0 1 -3.0961,1.6586 ZM-1.2711,2.6152 T-2.4797,2.8523 -5.4535,3.2155 -9.1214,3.2671 -12.8477,2.8795 -16.0203,2.2898 -18.2104,1.7624 -19.0513,1.5116 A1.5167,1.5167 0 0 1 -17.9811,-1.3268 T-17.3938,-1.0391 -15.5304,-0.499 -12.6262,-0.0488 -9.3062,0.1007 -5.9729,-0.235 -3.0706,-0.6721 -1.8095,-0.8218 A1.7394,1.7394 0 0 1 -1.2711,2.6152 ZM-19.9458,0.599 T-20.1256,0.2181 -20.3053,-0.1628 A1.6011,1.6011 0 0 1 -17.2869,-1.2323 T-17.1867,-0.8232 -17.0865,-0.4141 A1.5167,1.5167 0 0 1 -19.9458,0.599 ZM-20.0962,-1.632 T-19.6737,-2.2709 -18.1358,-3.6012 -15.5817,-4.5918 -12.2024,-4.8441 -8.5599,-4.4925 -5.4131,-3.7645 -2.8617,-2.8767 -0.8572,-2.0841 1.133,-1.3169 2.2251,-0.8775 A1.5427,1.5427 0 0 1 1.0549,1.9775 T-0.0315,1.5239 -2.0459,0.6497 -3.8497,-0.2212 -6.0104,-1.0164 -8.776,-1.5465 -11.8778,-1.6718 -15.0736,-1.2263 -17.072,-0.3019 -17.4959,0.2369 A1.6011,1.6011 0 0 1 -20.0962,-1.632 Z" stroke-linecap="round" fill="#4ba1f1"/></g></g><g transform="matrix(1, 0, 0, 1, 1530.93, 77.2218)" opacity="1"><g transform="scale(1)"><path d="M-1.2748,1.2748 T-2.34,0.088 -4.5803,-3.1445 -6.7429,-7.8232 -8.3825,-13.5512 -9.3766,-19.9631 -9.7737,-25.3449 -9.5756,-28.7668 -8.1348,-30.828 -5.6165,-30.8385 -2.8268,-27.7991 -0.394,-23.0741 1.2275,-18.3832 2.3376,-14.2099 3.0735,-10.9345 3.5463,-8.504 3.9724,-6.0126 4.1993,-4.538 A1.4789,1.4789 0 0 1 1.2607,-4.202 T1.1529,-5.6545 0.9636,-8.0827 0.64,-10.394 -0.0881,-13.5467 -1.2165,-17.5181 -2.7962,-21.8393 -5.5338,-25.7448 -7.2476,-25.5217 -6.7908,-20.3893 -5.7626,-14.347 -4.1374,-9.1011 -2.1258,-5.0574 0.0965,-2.3315 1.2748,-1.2748 A1.8028,1.8028 0 0 1 -1.2748,1.2748 ZM1.2532,-4.2916 T1.2145,-5.4771 1.721,-9.8183 3.104,-15.3796 4.7882,-19.7271 6.5149,-22.947 8.3761,-25.0708 10.7378,-25.828 13.0924,-24.6895 14.4996,-22.1896 14.8322,-18.8618 14.0034,-14.5586 12.2134,-10.162 10.0476,-6.7338 7.8061,-4.2 6.0058,-2.4114 4.4379,-1.0289 3.5326,-0.3581 A1.5124,1.5124 0 0 1 1.9274,-2.9219 T2.6984,-3.3007 4.2121,-4.3087 5.9391,-5.8647 7.8847,-8.1044 9.7528,-11.1625 11.2539,-15.018 11.8897,-18.5494 11.7125,-20.9225 10.5128,-22.2975 8.797,-21.6793 7.3149,-18.777 5.8499,-14.6198 4.6967,-10.2046 4.1736,-6.9464 4.1465,-5.1278 4.2068,-4.4484 A1.4789,1.4789 0 0 1 1.2532,-4.2916 ZM1.7875,-2.8228 T2.4434,-3.404 4.0861,-4.6558 6.4051,-6.0277 9.3032,-7.2477 12.092,-8.0843 14.4413,-8.4601 16.483,-8.0365 17.9208,-6.6993 18.5301,-4.7479 17.8543,-2.3401 15.7532,-0.119 12.4237,1.2263 7.9892,1.7186 3.7371,1.6587 0.8547,1.539 -0.9818,1.5499 -1.7447,1.5647 A1.5682,1.5682 0 0 1 -1.5353,-1.5647 T-0.8219,-1.4512 0.9692,-1.2588 3.7398,-1.1435 7.5908,-1.2326 11.1783,-1.7076 13.8984,-3.023 14.5872,-4.7798 12.9035,-5.3326 10.5252,-4.5907 8.0487,-3.3615 5.9869,-2.0589 4.3888,-0.9694 3.6725,-0.4572 A1.5124,1.5124 0 0 1 1.7875,-2.8228 ZM-1.0412,-1.4494 T-0.296,-1.1836 2.0817,0.8144 4.2714,3.7929 5.1293,6.1169 5.3205,8.6372 4.5365,11.3873 2.829,13.6093 -0.0042,14.8587 -3.2053,15.0688 -5.9395,14.1236 -8.2293,11.9766 -9.7094,9.3854 -10.5287,7.2037 -10.9976,5.2172 -11.1513,3.1992 -10.6993,1.0683 -9.4499,-0.9701 -7.653,-2.712 -6.6728,-3.5981 A2.1051,2.1051 0 0 1 -4.0652,-0.2927 T-4.4364,-0.0909 -5.9689,0.9572 -7.5149,2.7654 -7.6431,5.371 -7.0467,7.9689 -6.0759,9.8406 -3.8652,11.4274 -0.6412,11.5413 1.5772,9.4726 1.6315,6.2739 -0.0849,3.2588 -1.76,1.6892 -2.2388,1.4494 A1.5682,1.5682 0 0 1 -1.0412,-1.4494 ZM-7.3147,-1.1419 T-7.3417,-1.196 -7.3688,-1.2501 A2.1138,2.1138 0 0 1 -3.4613,-2.8638 T-3.4423,-2.8064 -3.4233,-2.749 A2.1051,2.1051 0 0 1 -7.3147,-1.1419 ZM-5.3221,0.0548 T-7.0702,0.0705 -10.6317,-0.0847 -14.6524,-0.8962 -18.8078,-2.4228 -22.5044,-4.6037 -25.2338,-6.8522 -26.7924,-8.4429 -27.37,-9.0798 A1.5235,1.5235 0 0 1 -24.9834,-10.9742 T-24.5942,-10.3932 -23.4089,-8.988 -21.0945,-7.1043 -17.8077,-5.3521 -14.1637,-4.2341 -10.7209,-3.8473 -7.3307,-4.0273 -5.508,-4.1687 A2.1138,2.1138 0 0 1 -5.3221,0.0548 ZM-27.6213,-10.5109 T-27.5463,-10.8542 -27.4713,-11.1976 A1.5994,1.5994 0 0 1 -24.4382,-10.1816 T-24.5851,-9.8624 -24.7321,-9.5431 A1.5235,1.5235 0 0 1 -27.6213,-10.5109 ZM-26.3028,-12.2506 T-25.4966,-12.4654 -23.0622,-12.6174 -19.0512,-12.1008 -14.5324,-11.1407 -10.5536,-9.959 -7.083,-8.5297 -4.4144,-7.2858 -1.9926,-5.6075 -0.1491,-3.7314 0.3132,-3.0436 A1.6424,1.6424 0 0 1 -2.4932,-1.3364 T-2.8914,-2.0632 -3.9558,-3.5924 -5.5576,-4.9318 -8.0374,-6.1419 -11.2815,-7.3879 -15.069,-8.3746 -19.3277,-9.1122 -22.7425,-9.4279 -24.7965,-9.2742 -25.6067,-9.1285 A1.5994,1.5994 0 0 1 -26.3028,-12.2506 Z" stroke-linecap="round" fill="#f87777"/></g></g><g transform="matrix(1, 0, 0, 1, 1663.7525, 52.0785)" opacity="1"><g transform="scale(1)"><defs><clipPath id="_export_9_r1mq__shape_vCuPr-QTTP4wFBrG-hNBI_clip"><path d="M-106.5592,-115.8513 h206.55915783270802 v215.85125639386825 h-206.55915783270802 ZM -8.176186667524117 -15.182139253620507 L -4.94212899789193 -16.520373534115976"/></clipPath></defs><g fill="none" stroke="#1d1d1d" stroke-width="3.5" stroke-linejoin="round" stroke-linecap="round" pointer-events="none"><g style="clip-path: url(&quot;#_export_9_r1mq__shape_vCuPr-QTTP4wFBrG-hNBI_clip&quot;);"><rect x="-106.5592" y="-115.8513" width="206.5592" height="215.8513" opacity="0"/><path d="M0,0L-6.559157832708024,-15.85125639386824" stroke-dasharray="none" stroke-dashoffset="none"/></g><path d="M -8.176186667524117 -15.182139253620507 L -4.94212899789193 -16.520373534115976"/></g></g></g><g transform="matrix(1, 0, 0, 1, 1667.5786, 50.9853)" opacity="1"><g transform="scale(1)"><defs><clipPath id="_export_9_r1mq__shape_t3qCnZ7D4DwMBNiEXWgte_clip"><path d="M-100,-112.5717 h205.46594400966842 v212.57167747751413 h-205.46594400966842 ZM 3.861071284272202 -13.269447880497315 L 7.0708167350646365 -11.873907074530942"/></clipPath></defs><g fill="none" stroke="#1d1d1d" stroke-width="3.5" stroke-linejoin="round" stroke-linecap="round" pointer-events="none"><g style="clip-path: url(&quot;#_export_9_r1mq__shape_t3qCnZ7D4DwMBNiEXWgte_clip&quot;);"><rect x="-100" y="-112.5717" width="205.4659" height="212.5717" opacity="0"/><path d="M0,0L5.465944009668419,-12.571677477514129" stroke-dasharray="none" stroke-dashoffset="none"/></g><path d="M 3.861071284272202 -13.269447880497315 L 7.0708167350646365 -11.873907074530942"/></g></g></g><g transform="matrix(1, 0, 0, 1, 1669.2184, 51.5319)" opacity="1"><g transform="scale(1)"><defs><clipPath id="_export_9_r1mq__shape_Hbze0MQyBj6YbWuQ7yjFt_clip"><path d="M-100,-100 h209.83867419629746 v205.46594400966853 h-209.83867419629746 ZM 10.688550977456002 3.9361696940103204 L 8.98879741513892 6.995718325326774"/></clipPath></defs><g fill="none" stroke="#1d1d1d" stroke-width="3.5" stroke-linejoin="round" stroke-linecap="round" pointer-events="none"><g style="clip-path: url(&quot;#_export_9_r1mq__shape_Hbze0MQyBj6YbWuQ7yjFt_clip&quot;);"><rect x="-100" y="-100" width="209.8387" height="205.4659" opacity="0"/><path d="M0,0L9.838674196297461,5.465944009668547" stroke-dasharray="none" stroke-dashoffset="none"/></g><path d="M 10.688550977456002 3.9361696940103204 L 8.98879741513892 6.995718325326774"/></g></g></g><g transform="matrix(1, 0, 0, 1, 1663.2059, 55.9046)" opacity="1"><g transform="scale(1)"><defs><clipPath id="_export_9_r1mq__shape_73s5-nqczeY1aLsMOXCYJ_clip"><path d="M-100,-100 h201 v212.57168790297496 h-201 ZM 1.75 12.571687902974958 L -1.75 12.571687902974958"/></clipPath></defs><g fill="none" stroke="#1d1d1d" stroke-width="3.5" stroke-linejoin="round" stroke-linecap="round" pointer-events="none"><g style="clip-path: url(&quot;#_export_9_r1mq__shape_73s5-nqczeY1aLsMOXCYJ_clip&quot;);"><rect x="-100" y="-100" width="201" height="212.5717" opacity="0"/><path d="M0,0L0,12.571687902974958" stroke-dasharray="none" stroke-dashoffset="none"/></g><path d="M 1.75 12.571687902974958 L -1.75 12.571687902974958"/></g></g></g><g transform="matrix(1, 0, 0, 1, 1659.3797, 52.6251)" opacity="1"><g transform="scale(1)"><defs><clipPath id="_export_9_r1mq__shape_GBfeipZ0vc2SYR73IRg8g_clip"><path d="M-113.6649,-100 h213.66486002417128 v201 h-213.66486002417128 ZM -13.594915690671534 2.2951981531665586 L -13.734804357671017 -1.2020051810485262"/></clipPath></defs><g fill="none" stroke="#1d1d1d" stroke-width="3.5" stroke-linejoin="round" stroke-linecap="round" pointer-events="none"><g style="clip-path: url(&quot;#_export_9_r1mq__shape_GBfeipZ0vc2SYR73IRg8g_clip&quot;);"><rect x="-113.6649" y="-100" width="213.6649" height="201" opacity="0"/><path d="M0,0L-13.664860024171276,0.5465964860590162" stroke-dasharray="none" stroke-dashoffset="none"/></g><path d="M -13.594915690671534 2.2951981531665586 L -13.734804357671017 -1.2020051810485262"/></g></g></g><g transform="matrix(1, 0, 0, 1, 1741.9155, 202.3919)" opacity="1"><g transform="scale(1)"><defs><clipPath id="_export_9_r1mq__shape_M_1v9XJtDcmWNhXwr3MUj_clip"><path d="M-114.2114,-112.5717 h213.1182322617301 v210.38532280966055 h-213.1182322617301 ZM -15.297679812439638 -11.199600114945866 L -13.125212357099771 -13.943754840082391"/></clipPath></defs><g fill="none" stroke="#1d1d1d" stroke-width="3.5" stroke-linejoin="round" stroke-linecap="round" pointer-events="none"><g style="clip-path: url(&quot;#_export_9_r1mq__shape_M_1v9XJtDcmWNhXwr3MUj_clip&quot;);"><rect x="-114.2114" y="-112.5717" width="213.1182" height="210.3853" opacity="0"/><path d="M-1.093213823039605,-2.1863546678535783L-14.211446084769705,-12.571677477514129" stroke-dasharray="none" stroke-dashoffset="none"/></g><path d="M -15.297679812439638 -11.199600114945866 L -13.125212357099771 -13.943754840082391"/></g></g></g><g transform="matrix(1, 0, 0, 1, 1745.1951, 196.926)" opacity="1"><g transform="scale(1)"><defs><clipPath id="_export_9_r1mq__shape_Jt1NBrx-eYuiEGl7kjJwu_clip"><path d="M-100,-115.3046 h201.63975818179438 v215.3046494823484 h-201.63975818179438 ZM -0.10028314696879725 -15.491079560919653 L 3.379799510557552 -15.118219403777138"/></clipPath></defs><g fill="none" stroke="#1d1d1d" stroke-width="3.5" stroke-linejoin="round" stroke-linecap="round" pointer-events="none"><g style="clip-path: url(&quot;#_export_9_r1mq__shape_Jt1NBrx-eYuiEGl7kjJwu_clip&quot;);"><rect x="-100" y="-115.3046" width="201.6398" height="215.3046" opacity="0"/><path d="M0,0L1.6397581817943774,-15.304649482348395" stroke-dasharray="none" stroke-dashoffset="none"/></g><path d="M -0.10028314696879725 -15.491079560919653 L 3.379799510557552 -15.118219403777138"/></g></g></g><g transform="matrix(1, 0, 0, 1, 1749.5678, 201.8453)" opacity="1"><g transform="scale(1)"><defs><clipPath id="_export_9_r1mq__shape_V0SCIpdw_Z3sIq19_ZB6K_clip"><path d="M-100,-101.6398 h214.21144608476925 v201.63977903271623 h-214.21144608476925 ZM 14.010854283049238 -3.37824471517382 L 14.412037886489262 0.0986866497413521"/></clipPath></defs><g fill="none" stroke="#1d1d1d" stroke-width="3.5" stroke-linejoin="round" stroke-linecap="round" pointer-events="none"><g style="clip-path: url(&quot;#_export_9_r1mq__shape_V0SCIpdw_Z3sIq19_ZB6K_clip&quot;);"><rect x="-100" y="-101.6398" width="214.2114" height="201.6398" opacity="0"/><path d="M0,0L14.21144608476925,-1.639779032716234" stroke-dasharray="none" stroke-dashoffset="none"/></g><path d="M 14.010854283049238 -3.37824471517382 L 14.412037886489262 0.0986866497413521"/></g></g></g><g transform="matrix(1, 0, 0, 1, 1740.2757, 205.1249)" opacity="1"><g transform="scale(1)"><defs><clipPath id="_export_9_r1mq__shape_SgFFlGBI2A5dm-juxctX2_clip"><path d="M-113.6649,-100 h213.66486002417128 v209.83870547267986 h-213.66486002417128 ZM -12.642326325788456 11.258890261949045 L -14.687393722554095 8.41852068341068"/></clipPath></defs><g fill="none" stroke="#1d1d1d" stroke-width="3.5" stroke-linejoin="round" stroke-linecap="round" pointer-events="none"><g style="clip-path: url(&quot;#_export_9_r1mq__shape_SgFFlGBI2A5dm-juxctX2_clip&quot;);"><rect x="-113.6649" y="-100" width="213.6649" height="209.8387" opacity="0"/><path d="M0,0L-13.664860024171276,9.838705472679862" stroke-dasharray="none" stroke-dashoffset="none"/></g><path d="M -12.642326325788456 11.258890261949045 L -14.687393722554095 8.41852068341068"/></g></g></g><g transform="matrix(1, 0, 0, 1, 1746.8349, 205.1249)" opacity="1"><g transform="scale(1)"><defs><clipPath id="_export_9_r1mq__shape_EIIvLbWZBbVmvTiU7-brI_clip"><path d="M-100,-100 h208.19891601450263 v212.5716462011316 h-208.19891601450263 ZM 9.664733688396034 11.615676250295435 L 6.733098340609224 13.527616151967793"/></clipPath></defs><g fill="none" stroke="#1d1d1d" stroke-width="3.5" stroke-linejoin="round" stroke-linecap="round" pointer-events="none"><g style="clip-path: url(&quot;#_export_9_r1mq__shape_EIIvLbWZBbVmvTiU7-brI_clip&quot;);"><rect x="-100" y="-100" width="208.1989" height="212.5716" opacity="0"/><path d="M0,0L8.198916014502629,12.571646201131614" stroke-dasharray="none" stroke-dashoffset="none"/></g><path d="M 9.664733688396034 11.615676250295435 L 6.733098340609224 13.527616151967793"/></g></g></g></svg>