<svg xmlns="http://www.w3.org/2000/svg" direction="ltr" width="489.02080133395725" height="233.39024471588812" viewBox="1473.174037337386 28.456646783249823 489.02080133395725 233.39024471588812" stroke-linecap="round" stroke-linejoin="round" data-color-mode="light" class="tl-container tl-theme__force-sRGB tl-theme__light" style="background-color: transparent;"><defs/><g transform="matrix(0.9135, 0.4067, -0.4067, 0.9135, 1676.6482, 108.6145)" opacity="1"><path d="M18.0624,6.2736 L26.281,22.8787 Q29.3861,29.1523 22.3868,29.0553 L7.9539,28.8553 Q0.9546,28.7583 4.2648,22.5904 L12.6671,6.934 Q15.9773,0.7661 18.988,7.0856 L26.6343,23.1347 Q29.6451,29.4542 22.6457,29.3644 L5.9102,29.1497 Q-1.0892,29.06 2.4465,23.0185 L11.7192,7.1745 Q15.2549,1.1331 18.0624,6.2736 " stroke="#1d1d1d" stroke-width="3.5" fill="none"/></g><g transform="matrix(1, 0, 0, 1, 1757.2201, 162.7507)" opacity="1"><path d="M21.0073,6.0528 L32.5615,25.942 Q36.0777,31.9947 29.0807,32.2005 L6.0406,32.8782 Q-0.9564,33.084 2.2432,26.8581 L13.2556,5.4289 Q16.4552,-0.7971 19.732,5.3885 L30.9078,26.485 Q34.1846,32.6706 27.1924,32.3408 L8.0201,31.4363 Q1.0278,31.1064 4.3915,24.9675 L14.5877,6.3588 Q17.9513,0.2199 21.0073,6.0528 " stroke="#f87777" stroke-width="3.5" fill="none"/></g><g transform="matrix(-0.9781, -0.2079, 0.2079, -0.9781, 1815.1639, 155.3811)" opacity="1"><path d="M22.324,6.0814 L33.7627,26.1491 Q37.2291,32.2305 30.2328,32.4563 L5.8613,33.2428 Q-1.1351,33.4686 2.5126,27.4941 L15.3016,6.5472 Q18.9493,0.5727 22.5019,6.6042 L34.2612,26.5692 Q37.8137,32.6007 30.8137,32.6019 L8.0226,32.6059 Q1.0226,32.6071 4.5233,26.5453 L15.9456,6.7666 Q19.4463,0.7049 22.324,6.0814 " stroke="#f1ac4b" stroke-width="3.5" fill="none"/></g><g transform="matrix(0.9272, -0.3746, 0.3746, 0.9272, 1614.5647, 148.2463)" opacity="1"><path d="M26.481,6.0482 L42.7713,34.0066 Q46.2954,40.0548 39.2957,40.1164 L6.2174,40.4071 Q-0.7824,40.4687 2.7416,34.4204 L19.9378,4.9056 Q23.4617,-1.1427 26.8941,4.9579 L43.424,34.3375 Q46.8565,40.4382 39.8605,40.6764 L6.8567,41.8004 Q-0.1392,42.0387 3.3167,35.9513 L20.0978,6.3933 Q23.5538,0.3059 26.481,6.0482 " stroke="#4ba1f1" stroke-width="3.5" fill="none"/></g><g transform="matrix(-0.0872, -0.9962, 0.9962, -0.0872, 1803.3935, 188.8134)" opacity="1"><path d="M18.6776,5.6833 L25.97,17.0499 Q29.6163,22.7332 22.6163,22.7422 L8.1134,22.761 Q1.1134,22.77 4.4826,16.9273 L11.2209,5.2418 Q14.59,-0.6009 18.1705,5.1636 L25.3315,16.6926 Q28.9119,22.4571 21.9151,22.6664 L7.7772,23.0894 Q0.7803,23.2987 4.3999,17.4099 L11.6392,5.6325 Q15.2589,-0.2563 18.6776,5.6833 " stroke="#1d1d1d" stroke-width="3.5" fill="none"/></g><g transform="matrix(0.5, -0.866, 0.866, 0.5, 1574.7438, 139.9146)" opacity="1"><path d="M28.0455,6.0915 L44.7495,35.5959 Q48.1982,41.6874 41.1983,41.6576 L5.9073,41.5076 Q-1.0927,41.4779 2.6822,35.583 L21.6909,5.8987 Q25.4657,0.0038 28.9606,6.0689 L46.8387,37.0959 Q50.3335,43.1611 43.336,42.9743 L6.0105,41.9779 Q-0.987,41.7911 2.762,35.8797 L21.3788,6.5253 Q25.1278,0.6139 28.0455,6.0915 " stroke="#f87777" stroke-width="3.5" fill="none"/></g><g transform="matrix(0.6293, -0.7771, 0.7771, 0.6293, 1552.5444, 169.952)" opacity="1"><path d="M19.5128,5.966 L26.9328,18.0559 Q30.5943,24.0219 23.5945,24.076 L7.1613,24.2029 Q0.1615,24.2569 4.0453,18.4332 L12.8543,5.2241 Q16.7381,-0.5996 20.2172,5.4745 L28.4117,19.7811 Q31.8908,25.8553 24.8908,25.8765 L7.929,25.928 Q0.9291,25.9493 4.4823,19.9181 L12.7215,5.9329 Q16.2747,-0.0982 19.5128,5.966 " stroke="#f1ac4b" stroke-width="3.5" fill="none"/></g><g transform="matrix(1, 0, 0, 1, 1549.5141, 78.0286)" opacity="1"><path d="M12.4519,4.4566 L17.6782,13.3697 Q20.2914,17.8262 15.1576,17.4047 L4.89,16.5615 Q-0.2438,16.14 2.2853,12.3294 L7.3436,4.7083 Q9.8727,0.8977 12.6044,5.002 L18.0678,13.2105 Q20.7994,17.3147 15.5632,17.4544 L5.0906,17.7338 Q-0.1457,17.8734 2.2395,13.3412 L7.0098,4.2767 Q9.395,-0.2556 12.4519,4.4566 " stroke="#1d1d1d" stroke-width="3.5" fill="none"/></g><g transform="matrix(1, 0, 0, 1, 1524.9174, 106.4515)" opacity="1"><path d="M19.1208,6.0372 L27.9354,21.0578 Q31.4783,27.095 24.4785,27.1487 L8.0112,27.2749 Q1.0114,27.3286 4.2378,21.1164 L12.5493,5.1136 Q15.7757,-1.0985 19.268,4.9681 L28.5097,21.0223 Q32.002,27.089 25.0127,27.4758 L7.4973,28.4453 Q0.508,28.8321 3.5647,22.5348 L11.6084,5.9628 Q14.665,-0.3346 19.1208,6.0372 " stroke="#4ba1f1" stroke-width="3.5" fill="none"/></g><g transform="matrix(0.2924, -0.9563, 0.9563, 0.2924, 1841.8066, 175.3015)" opacity="1"><path d="M15.3469,5.2371 L21.4439,15.7114 Q24.4924,20.9485 18.3316,21.0353 L6.01,21.209 Q-0.1508,21.2959 2.8017,15.7131 L8.7066,4.5474 Q11.6591,-1.0354 14.7492,4.3849 L20.9292,15.2255 Q24.0193,20.6459 17.7965,20.7159 L5.3508,20.8561 Q-0.872,20.9262 2.3901,15.4033 L8.9142,4.3576 Q12.1763,-1.1653 15.3469,5.2371 " stroke="#4ba1f1" stroke-width="3.5" fill="none"/></g><g transform="matrix(1, 0, 0, 1, 1854.5138, 184.6144)" opacity="1"><path d="M22.0669,5.907 L33.2917,23.5597 Q37.0477,29.4666 30.0523,29.7185 L6.9472,30.5505 Q-0.0483,30.8024 3.3747,24.6964 L14.0782,5.6032 Q17.5011,-0.5028 21.1669,5.4606 L32.2206,23.4427 Q35.8864,29.4062 28.8902,29.6379 L7.7304,30.3388 Q0.7342,30.5705 4.2744,24.5317 L15.0171,6.207 Q18.5573,0.1683 22.0669,5.907 " stroke="#f1ac4b" stroke-width="3.5" fill="none"/></g><g transform="matrix(0.2924, -0.9563, 0.9563, 0.2924, 1686.5738, 185.6868)" opacity="1"><path d="M15.1528,5.2758 L20.8616,15.8274 Q23.716,21.1031 17.86,20.7894 L6.1481,20.1619 Q0.2921,19.8482 3.2823,14.8882 L9.2628,4.9681 Q12.253,0.0081 15.6117,4.9328 L22.329,14.7823 Q25.6876,19.707 19.417,20.1833 L6.8758,21.136 Q0.6052,21.6123 3.7446,16.023 L10.0234,4.8446 Q13.1628,-0.7447 15.1528,5.2758 " stroke="#4ba1f1" stroke-width="3.5" fill="none"/></g><g transform="matrix(0.6293, -0.7771, 0.7771, 0.6293, 1706.1374, 139.3427)" opacity="1"><path d="M18.9417,6.2808 L28.1127,24.9194 Q31.2031,31.2002 24.2042,31.0801 L7.3022,30.7899 Q0.3033,30.6697 3.5446,24.4654 L12.562,7.2051 Q15.8034,1.0007 19.1049,7.1732 L29.3331,26.2958 Q32.6346,32.4683 25.6347,32.4937 L7.732,32.5588 Q0.732,32.5843 3.7959,26.2904 L13.2695,6.8295 Q16.3333,0.5356 18.9417,6.2808 " stroke="#f1ac4b" stroke-width="3.5" fill="none"/></g><g transform="matrix(-0.809, -0.5878, 0.5878, -0.809, 1919.2713, 235.7906)" opacity="1"><path d="M12.6427,4.4605 L17.7041,13.3815 Q20.2348,17.842 15.3641,18.2499 L5.6227,19.0656 Q0.752,19.4734 3.0401,14.4779 L7.6162,4.4869 Q9.9042,-0.5086 12.2386,4.0067 L16.9072,13.0371 Q19.2415,17.5524 14.3204,17.6075 L4.4781,17.7177 Q-0.443,17.7729 1.9521,13.4988 L6.7422,4.9506 Q9.1372,0.6765 12.6427,4.4605 " stroke="#f87777" stroke-width="3.5" fill="none"/></g><g transform="matrix(-0.0175, -0.9998, 0.9998, -0.0175, 1505.3966, 86.3084)" opacity="1"><path d="M15.7967,5.1884 L21.8801,15.5651 Q24.9219,20.7535 18.5408,20.2382 L5.7785,19.2077 Q-0.6027,18.6925 2.6184,14.2894 L9.0606,5.4833 Q12.2816,1.0802 15.4718,5.5804 L21.8522,14.5808 Q25.0424,19.081 18.7659,19.0231 L6.213,18.9074 Q-0.0635,18.8496 3.0978,13.9289 L9.4206,4.0874 Q12.5819,-0.8334 15.7967,5.1884 " stroke="#f1ac4b" stroke-width="3.5" fill="none"/></g></svg>