<svg xmlns="http://www.w3.org/2000/svg" direction="ltr" width="453.72180371918193" height="150.36193203350012" viewBox="1481.4389956843947 109.43349194431096 453.72180371918193 150.36193203350012" stroke-linecap="round" stroke-linejoin="round" data-color-mode="light" class="tl-container tl-theme__force-sRGB tl-theme__light" style="background-color: transparent;"><defs/><g transform="matrix(1, 0, 0, 1, 1513.439, 200.4657)" opacity="1"><g transform="scale(1)"><defs><clipPath id="_export_5_rpt__shape_3yrgEiWbAoQkgXgCbXa-P_clip"><path d="M-100,-159.0322 h278.70962293051707 v259.03221198515746 h-278.70962293051707 Z"/></clipPath></defs><g fill="none" stroke="#4ba1f1" stroke-width="3.5" stroke-linejoin="round" stroke-linecap="round" pointer-events="none"><g style="clip-path: url(&quot;#_export_5_rpt__shape_3yrgEiWbAoQkgXgCbXa-P_clip&quot;);"><rect x="-100" y="-159.0322" width="278.7096" height="259.0322" opacity="0"/><path d="M0,0L78.70962293051707,-59.03221198515749" stroke-dasharray="none" stroke-dashoffset="none"/></g></g></g></g><g transform="matrix(1, 0, 0, 1, 1539.6755, 154.5518)" opacity="1"><g transform="scale(1)"><defs><clipPath id="_export_5_rpt__shape_t2f2ssvgPB7a-yx2ukPoQ_clip"><path d="M-100,-100 h280.89600887475353 v247.00711014278073 h-280.89600887475353 Z"/></clipPath></defs><g fill="none" stroke="#f1ac4b" stroke-width="3.5" stroke-linejoin="round" stroke-linecap="round" pointer-events="none"><g style="clip-path: url(&quot;#_export_5_rpt__shape_t2f2ssvgPB7a-yx2ukPoQ_clip&quot;);"><rect x="-100" y="-100" width="280.896" height="247.0071" opacity="0"/><path d="M0,0L80.89600887475353,47.00711014278073" stroke-dasharray="none" stroke-dashoffset="none"/></g></g></g></g><g transform="matrix(1, 0, 0, 1, 1640.2489, 180.7883)" opacity="1"><g transform="scale(1)"><defs><clipPath id="_export_5_rpt__shape_i1KtSFmaRryGFuRNn5EoE_clip"><path d="M-100,-124.0501 h239.90140795131765 v224.05014113198854 h-239.90140795131765 Z"/></clipPath></defs><g fill="none" stroke="#f1ac4b" stroke-width="3.5" stroke-linejoin="round" stroke-linecap="round" pointer-events="none"><g style="clip-path: url(&quot;#_export_5_rpt__shape_i1KtSFmaRryGFuRNn5EoE_clip&quot;);"><rect x="-100" y="-124.0501" width="239.9014" height="224.0501" opacity="0"/><path d="M0,0L39.90140795131765,-24.05014113198854" stroke-dasharray="none" stroke-dashoffset="none"/></g></g></g></g><g transform="matrix(1, 0, 0, 1, 1765.9656, 148.5392)" opacity="1"><g transform="scale(1)"><defs><clipPath id="_export_5_rpt__shape_5xYmQ6reb7LSyEipZSWZa_clip"><path d="M-100,-100 h218.58421797324172 v258.48558422271594 h-218.58421797324172 Z"/></clipPath></defs><g fill="none" stroke="#f1ac4b" stroke-width="3.5" stroke-linejoin="round" stroke-linecap="round" pointer-events="none"><g style="clip-path: url(&quot;#_export_5_rpt__shape_5xYmQ6reb7LSyEipZSWZa_clip&quot;);"><rect x="-100" y="-100" width="218.5842" height="258.4856" opacity="0"/><path d="M0,0L18.58421797324172,58.48558422271597" stroke-dasharray="none" stroke-dashoffset="none"/></g></g></g></g><g transform="matrix(1, 0, 0, 1, 1823.358, 197.7327)" opacity="1"><g transform="scale(1)"><defs><clipPath id="_export_5_rpt__shape_O8TVXwcNSNQYf1PymQEVh_clip"><path d="M-100,-124.0502 h279.8027742007919 v224.05016198291023 h-279.8027742007919 Z"/></clipPath></defs><g fill="none" stroke="#f1ac4b" stroke-width="3.5" stroke-linejoin="round" stroke-linecap="round" pointer-events="none"><g style="clip-path: url(&quot;#_export_5_rpt__shape_O8TVXwcNSNQYf1PymQEVh_clip&quot;);"><rect x="-100" y="-124.0502" width="279.8028" height="224.0502" opacity="0"/><path d="M0,0L79.80277420079187,-24.050161982910225" stroke-dasharray="none" stroke-dashoffset="none"/></g></g></g></g><g transform="matrix(1, 0, 0, 1, 1668.1252, 202.1055)" opacity="1"><g transform="scale(1)"><defs><clipPath id="_export_5_rpt__shape_j5XLPyXOMQ-5LH5Qmrxy8_clip"><path d="M-100,-154.6594 h231.15590587621682 v254.65944009668533 h-231.15590587621682 Z"/></clipPath></defs><g fill="none" stroke="#4ba1f1" stroke-width="3.5" stroke-linejoin="round" stroke-linecap="round" pointer-events="none"><g style="clip-path: url(&quot;#_export_5_rpt__shape_j5XLPyXOMQ-5LH5Qmrxy8_clip&quot;);"><rect x="-100" y="-154.6594" width="231.1559" height="254.6594" opacity="0"/><path d="M0,0L31.15590587621682,-54.65944009668533" stroke-dasharray="none" stroke-dashoffset="none"/></g></g></g></g><g transform="matrix(1, 0, 0, 1, 1641.8887, 145.8063)" opacity="1"><g transform="scale(1)"><defs><clipPath id="_export_5_rpt__shape_zw3yP78Krfs1TXvCNwTq5_clip"><path d="M-100,-100 h202.73297200483444 v270.510665214171 h-202.73297200483444 Z"/></clipPath></defs><g fill="none" stroke="#4ba1f1" stroke-width="3.5" stroke-linejoin="round" stroke-linecap="round" pointer-events="none"><g style="clip-path: url(&quot;#_export_5_rpt__shape_zw3yP78Krfs1TXvCNwTq5_clip&quot;);"><rect x="-100" y="-100" width="202.733" height="270.5107" opacity="0"/><path d="M0,0L2.732972004834437,70.51066521417104" stroke-dasharray="none" stroke-dashoffset="none"/></g></g></g></g><g transform="matrix(1, 0, 0, 1, 1746.8348, 194.4532)" opacity="1"><g transform="scale(1)"><defs><clipPath id="_export_5_rpt__shape_eG3BYcSrko4wJ1hMxL0V__clip"><path d="M-131.7025,-112.0251 h240.99458007251405 v237.7150220070815 h-240.99458007251405 Z"/></clipPath></defs><g fill="none" stroke="#4ba1f1" stroke-width="3.5" stroke-linejoin="round" stroke-linecap="round" pointer-events="none"><g style="clip-path: url(&quot;#_export_5_rpt__shape_eG3BYcSrko4wJ1hMxL0V__clip&quot;);"><rect x="-131.7025" y="-112.0251" width="240.9946" height="237.715" opacity="0"/><path d="M-31.702450234971593,25.689941015626403L9.292129837542461,-12.025080991455098" stroke-dasharray="none" stroke-dashoffset="none"/></g></g></g></g><g transform="matrix(1, 0, 0, 1, 1556.0734, 208.118)" opacity="1"><g transform="scale(1)"><defs><clipPath id="_export_5_rpt__shape_dap8MB45Dmu04ukJK6alr_clip"><path d="M-100,-100 h279.8027950517135 v219.67741094535972 h-279.8027950517135 Z"/></clipPath></defs><g fill="none" stroke="#f87777" stroke-width="3.5" stroke-linejoin="round" stroke-linecap="round" pointer-events="none"><g style="clip-path: url(&quot;#_export_5_rpt__shape_dap8MB45Dmu04ukJK6alr_clip&quot;);"><rect x="-100" y="-100" width="279.8028" height="219.6774" opacity="0"/><path d="M0,0L79.80279505171347,19.677410945359725" stroke-dasharray="none" stroke-dashoffset="none"/></g></g></g></g><g transform="matrix(1, 0, 0, 1, 1693.8152, 191.7202)" opacity="1"><g transform="scale(1)"><defs><clipPath id="_export_5_rpt__shape_MtK5PIrDf4F7adAVaagEn_clip"><path d="M-100,-100 h269.9640583026512 v234.98205000224726 h-269.9640583026512 Z"/></clipPath></defs><g fill="none" stroke="#f87777" stroke-width="3.5" stroke-linejoin="round" stroke-linecap="round" pointer-events="none"><g style="clip-path: url(&quot;#_export_5_rpt__shape_MtK5PIrDf4F7adAVaagEn_clip&quot;);"><rect x="-100" y="-100" width="269.9641" height="234.9821" opacity="0"/><path d="M0,0L69.96405830265121,34.98205000224726" stroke-dasharray="none" stroke-dashoffset="none"/></g></g></g></g><g transform="matrix(1, 0, 0, 1, 1839.7559, 157.2847)" opacity="1"><g transform="scale(1)"><defs><clipPath id="_export_5_rpt__shape_-m9c5T5Md0HRH9enQSyIq_clip"><path d="M-138.8082,-100 h238.80819412827782 v224.59674804350837 h-238.80819412827782 Z"/></clipPath></defs><g fill="none" stroke="#f87777" stroke-width="3.5" stroke-linejoin="round" stroke-linecap="round" pointer-events="none"><g style="clip-path: url(&quot;#_export_5_rpt__shape_-m9c5T5Md0HRH9enQSyIq_clip&quot;);"><rect x="-138.8082" y="-100" width="238.8082" height="224.5967" opacity="0"/><path d="M0,0L-38.80819412827782,24.59674804350837" stroke-dasharray="none" stroke-dashoffset="none"/></g></g></g></g><g transform="matrix(1, 0, 0, 1, 1879.1107, 155.645)" opacity="1"><g transform="scale(1)"><defs><clipPath id="_export_5_rpt__shape_xi7RlnUaKCqcryyflt-zF_clip"><path d="M-100,-100 h208.74550207510106 v260.671970166952 h-208.74550207510106 Z"/></clipPath></defs><g fill="none" stroke="#4ba1f1" stroke-width="3.5" stroke-linejoin="round" stroke-linecap="round" pointer-events="none"><g style="clip-path: url(&quot;#_export_5_rpt__shape_xi7RlnUaKCqcryyflt-zF_clip&quot;);"><rect x="-100" y="-100" width="208.7455" height="260.672" opacity="0"/><path d="M0,0L8.745502075101058,60.67197016695201" stroke-dasharray="none" stroke-dashoffset="none"/></g></g></g></g><g transform="matrix(1, 0, 0, 1, 1798.7613, 223.4227)" opacity="1"><g transform="scale(1)"><defs><clipPath id="_export_5_rpt__shape_f8tqD6RYAzUJVIRD8Zqso_clip"><path d="M-100,-112.5717 h236.07522212344384 v212.57166705205333 h-236.07522212344384 Z"/></clipPath></defs><g fill="none" stroke="#4ba1f1" stroke-width="3.5" stroke-linejoin="round" stroke-linecap="round" pointer-events="none"><g style="clip-path: url(&quot;#_export_5_rpt__shape_f8tqD6RYAzUJVIRD8Zqso_clip&quot;);"><rect x="-100" y="-112.5717" width="236.0752" height="212.5717" opacity="0"/><path d="M0,0L36.07522212344384,-12.571667052053328" stroke-dasharray="none" stroke-dashoffset="none"/></g></g></g></g></svg>