<svg xmlns="http://www.w3.org/2000/svg" direction="ltr" width="831.2187866712691" height="265.3956336677134" viewBox="379.04795352255223 98.5057745052946 831.2187866712691 265.3956336677134" stroke-linecap="round" stroke-linejoin="round" data-color-mode="light" class="tl-container tl-theme__force-sRGB tl-theme__light" style="background-color: transparent;"><defs/><g transform="matrix(0.9986, -0.0523, 0.0523, 0.9986, 398.7741, 249.7124)" opacity="1"><g transform="scale(1)"><defs><clipPath id="_export_1_r9m__shape_aXjnzi8d3XV8dHayOveA9_clip"><path d="M-86.903,-115.386 h215.59083767775064 v256.5495284114002 h-215.59083767775064 ZM 9.627840091414763,-10.830974291851259&#10;  a 4.725,4.725 0 1,0 9.45,0&#10;  a 4.725,4.725 0 1,0 -9.45,0 M 33.749007781712905 39.76812653024032 L 23.626670938701565 42.55887855014734"/></clipPath></defs><g fill="none" stroke="#4ba1f1" stroke-width="3.5" stroke-linejoin="round" stroke-linecap="round" pointer-events="none"><g style="clip-path: url(&quot;#_export_1_r9m__shape_aXjnzi8d3XV8dHayOveA9_clip&quot;);"><rect x="-86.903" y="-115.386" width="215.5908" height="256.5495" opacity="0"/><path d="M13.097001682456604,-15.386025871206364L28.687839360207235,41.16350254019383" stroke-dasharray="none" stroke-dashoffset="none"/></g><path d="M 9.627840091414763,-10.830974291851259&#10;  a 4.725,4.725 0 1,0 9.45,0&#10;  a 4.725,4.725 0 1,0 -9.45,0 "/><path d="M 33.749007781712905 39.76812653024032 L 23.626670938701565 42.55887855014734"/></g></g></g><g transform="matrix(0.9986, -0.0523, 0.0523, 0.9986, 442.5751, 245.1579)" opacity="1"><g transform="scale(1)"><defs><clipPath id="_export_1_r9m__shape_2OuyMcZ75c3b7C7is9vpl_clip"><path d="M-90.4727,-101.3916 h237.17746085774917 v265.01540220383674 h-237.17746085774917 ZM 7.147767808776801,2.710173043256983&#10;  a 4.7250000000000005,4.7250000000000005 0 1,0 9.450000000000001,0&#10;  a 4.7250000000000005,4.7250000000000005 0 1,0 -9.450000000000001,0 M 51.262242292707775 61.017735004691886 L 42.14724798956579 66.22992061666784"/></clipPath></defs><g fill="none" stroke="#f1ac4b" stroke-width="3.5" stroke-linejoin="round" stroke-linecap="round" pointer-events="none"><g style="clip-path: url(&quot;#_export_1_r9m__shape_2OuyMcZ75c3b7C7is9vpl_clip&quot;);"><rect x="-90.4727" y="-101.3916" width="237.1775" height="265.0154" opacity="0"/><path d="M9.527284283387623,-1.391574393156911L46.70474514113678,63.62382781067986" stroke-dasharray="none" stroke-dashoffset="none"/></g><path d="M 7.147767808776801,2.710173043256983&#10;  a 4.7250000000000005,4.7250000000000005 0 1,0 9.450000000000001,0&#10;  a 4.7250000000000005,4.7250000000000005 0 1,0 -9.450000000000001,0 "/><path d="M 51.262242292707775 61.017735004691886 L 42.14724798956579 66.22992061666784"/></g></g></g><g transform="matrix(0.9986, -0.0523, 0.0523, 0.9986, 489.7562, 244.9711)" opacity="1"><g transform="scale(1)"><defs><clipPath id="_export_1_r9m__shape_qNq8bntN3WZHU5DrO5bCZ_clip"><path d="M-88.587,-101.2927 h242.27804833682745 v270.7335667338324 h-242.27804833682745 ZM 9.112136495533324,2.7630355087583167&#10;  a 4.725000000000001,4.725000000000001 0 1,0 9.450000000000003,0&#10;  a 4.725000000000001,4.725000000000001 0 1,0 -9.450000000000003,0 M 58.1974171023319 66.74734793015803 L 49.18464234966832 72.13435927762616"/></clipPath></defs><g fill="none" stroke="#f87777" stroke-width="3.5" stroke-linejoin="round" stroke-linecap="round" pointer-events="none"><g style="clip-path: url(&quot;#_export_1_r9m__shape_qNq8bntN3WZHU5DrO5bCZ_clip&quot;);"><rect x="-88.587" y="-101.2927" width="242.278" height="270.7336" opacity="0"/><path d="M11.412981389172673,-1.292713129940288L53.69102972600011,69.4408536038921" stroke-dasharray="none" stroke-dashoffset="none"/></g><path d="M 9.112136495533324,2.7630355087583167&#10;  a 4.725000000000001,4.725000000000001 0 1,0 9.450000000000003,0&#10;  a 4.725000000000001,4.725000000000001 0 1,0 -9.450000000000003,0 "/><path d="M 58.1974171023319 66.74734793015803 L 49.18464234966832 72.13435927762616"/></g></g></g><g transform="matrix(0.9986, -0.0523, 0.0523, 0.9986, 538.7777, 247.8194)" opacity="1"><g transform="scale(1)"><defs><clipPath id="_export_1_r9m__shape_2J8m3PEKsXySowY0qAA3__clip"><path d="M-93.153,-104.3683 h264.4539581024469 v278.5240786879466 h-264.4539581024469 ZM 5.1197663481078015,-0.716118294530343&#10;  a 4.724999999999999,4.724999999999999 0 1,0 9.449999999999998,0&#10;  a 4.724999999999999,4.724999999999999 0 1,0 -9.449999999999998,0 M 75.35894123930726 70.82483320276255 L 67.24288459804663 77.48663660693542"/></clipPath></defs><g fill="none" stroke="#1d1d1d" stroke-width="3.5" stroke-linejoin="round" stroke-linecap="round" pointer-events="none"><g style="clip-path: url(&quot;#_export_1_r9m__shape_2J8m3PEKsXySowY0qAA3__clip&quot;);"><rect x="-93.153" y="-104.3683" width="264.454" height="278.5241" opacity="0"/><path d="M6.846954816230018,-4.368343783097632L71.30091291867694,74.15573490484898" stroke-dasharray="none" stroke-dashoffset="none"/></g><path d="M 5.1197663481078015,-0.716118294530343&#10;  a 4.724999999999999,4.724999999999999 0 1,0 9.449999999999998,0&#10;  a 4.724999999999999,4.724999999999999 0 1,0 -9.449999999999998,0 "/><path d="M 75.35894123930726 70.82483320276255 L 67.24288459804663 77.48663660693542"/></g></g></g><g transform="matrix(0.9986, -0.0523, 0.0523, 0.9986, 600.0771, 256.4808)" opacity="1"><g transform="scale(1)"><defs><clipPath id="_export_1_r9m__shape_f8-Un6JFOldJxuvC_YCWr_clip"><path d="M-104.7207,-113.0648 h280.1595280636602 v282.20520311643054 h-280.1595280636602 ZM -6.146976439043861,-9.681913254997928&#10;  a 4.725,4.725 0 1,0 9.45,0&#10;  a 4.725,4.725 0 1,0 -9.45,0 M 79.19761364923396 65.47513634909305 L 71.68004438324142 72.8056310343789"/></clipPath></defs><g fill="none" stroke="#4ba1f1" stroke-width="3.5" stroke-linejoin="round" stroke-linecap="round" pointer-events="none"><g style="clip-path: url(&quot;#_export_1_r9m__shape_f8-Un6JFOldJxuvC_YCWr_clip&quot;);"><rect x="-104.7207" y="-113.0648" width="280.1595" height="282.2052" opacity="0"/><path d="M-4.7206990474224995,-13.064819424694575L75.43882901623769,69.14038369173598" stroke-dasharray="none" stroke-dashoffset="none"/></g><path d="M -6.146976439043861,-9.681913254997928&#10;  a 4.725,4.725 0 1,0 9.45,0&#10;  a 4.725,4.725 0 1,0 -9.45,0 "/><path d="M 79.19761364923396 65.47513634909305 L 71.68004438324142 72.8056310343789"/></g></g></g><g transform="matrix(0.9986, -0.0523, 0.0523, 0.9986, 642.9338, 238.7084)" opacity="1"><g transform="scale(1)"><defs><clipPath id="_export_1_r9m__shape_c4P19y7XaGI9su1-1ivuX_clip"><path d="M-100,-100 h286.50988463593956 v297.8547119994522 h-286.50988463593956 ZM -1.5954324102590913,3.539976228909352&#10;  a 4.7250000000000005,4.7250000000000005 0 1,0 9.450000000000001,0&#10;  a 4.7250000000000005,4.7250000000000005 0 1,0 -9.450000000000001,0 M 90.44319155694996 94.37741467751786 L 82.57657771492916 101.33200932138655"/></clipPath></defs><g fill="none" stroke="#f1ac4b" stroke-width="3.5" stroke-linejoin="round" stroke-linecap="round" pointer-events="none"><g style="clip-path: url(&quot;#_export_1_r9m__shape_c4P19y7XaGI9su1-1ivuX_clip&quot;);"><rect x="-100" y="-100" width="286.5099" height="297.8547" opacity="0"/><path d="M0,0L86.50988463593956,97.8547119994522" stroke-dasharray="none" stroke-dashoffset="none"/></g><path d="M -1.5954324102590913,3.539976228909352&#10;  a 4.7250000000000005,4.7250000000000005 0 1,0 9.450000000000001,0&#10;  a 4.7250000000000005,4.7250000000000005 0 1,0 -9.450000000000001,0 "/><path d="M 90.44319155694996 94.37741467751786 L 82.57657771492916 101.33200932138655"/></g></g></g><g transform="matrix(0.9986, -0.0523, 0.0523, 0.9986, 703.3329, 236.6333)" opacity="1"><g transform="scale(1)"><defs><clipPath id="_export_1_r9m__shape_tfUlmMdoZuYjEzZjB-g6K_clip"><path d="M-100,-100 h287.14337496885366 v298.6116244738104 h-287.14337496885366 ZM -1.5961513281366542,3.540611668706267&#10;  a 4.725000000000001,4.725000000000001 0 1,0 9.450000000000003,0&#10;  a 4.725000000000001,4.725000000000001 0 1,0 -9.450000000000003,0 M 91.07738793408284 95.13512594951781 L 83.20936200362446 102.08812299810303"/></clipPath></defs><g fill="none" stroke="#f87777" stroke-width="3.5" stroke-linejoin="round" stroke-linecap="round" pointer-events="none"><g style="clip-path: url(&quot;#_export_1_r9m__shape_tfUlmMdoZuYjEzZjB-g6K_clip&quot;);"><rect x="-100" y="-100" width="287.1434" height="298.6116" opacity="0"/><path d="M0,0L87.14337496885365,98.61162447381042" stroke-dasharray="none" stroke-dashoffset="none"/></g><path d="M -1.5961513281366542,3.540611668706267&#10;  a 4.725000000000001,4.725000000000001 0 1,0 9.450000000000003,0&#10;  a 4.725000000000001,4.725000000000001 0 1,0 -9.450000000000003,0 "/><path d="M 91.07738793408284 95.13512594951781 L 83.20936200362446 102.08812299810303"/></g></g></g><g transform="matrix(0.9986, -0.0523, 0.0523, 0.9986, 757.0751, 233.8167)" opacity="1"><g transform="scale(1)"><defs><clipPath id="_export_1_r9m__shape_254Aev0naVTwLH_SDZSvk_clip"><path d="M-100,-100 h280.2405370079273 v300.90365164618703 h-280.2405370079273 ZM -1.7841088889680936,3.698213686775484&#10;  a 4.7250000000000005,4.7250000000000005 0 1,0 9.450000000000001,0&#10;  a 4.7250000000000005,4.7250000000000005 0 1,0 -9.450000000000001,0 M 84.34966332656671 97.63599485615157 L 76.13141068928786 104.17130843622249"/></clipPath></defs><g fill="none" stroke="#1d1d1d" stroke-width="3.5" stroke-linejoin="round" stroke-linecap="round" pointer-events="none"><g style="clip-path: url(&quot;#_export_1_r9m__shape_254Aev0naVTwLH_SDZSvk_clip&quot;);"><rect x="-100" y="-100" width="280.2405" height="300.9037" opacity="0"/><path d="M0,0L80.24053700792729,100.90365164618703" stroke-dasharray="none" stroke-dashoffset="none"/></g><path d="M -1.7841088889680936,3.698213686775484&#10;  a 4.7250000000000005,4.7250000000000005 0 1,0 9.450000000000001,0&#10;  a 4.7250000000000005,4.7250000000000005 0 1,0 -9.450000000000001,0 "/><path d="M 84.34966332656671 97.63599485615157 L 76.13141068928786 104.17130843622249"/></g></g></g><g transform="matrix(0.9986, -0.0523, 0.0523, 0.9986, 812.918, 229.4857)" opacity="1"><g transform="scale(1)"><defs><clipPath id="_export_1_r9m__shape_0l6qUEf87JLxuRYa2CH9W_clip"><path d="M-100,-100 h282.59024965221573 v295.04190330486983 h-282.59024965221573 ZM -1.6257285123672944,3.566530701668914&#10;  a 4.725,4.725 0 1,0 9.45,0&#10;  a 4.725,4.725 0 1,0 -9.45,0 M 86.55306154295896 91.59826831861129 L 78.62743776147248 98.4855382911284"/></clipPath></defs><g fill="none" stroke="#4ba1f1" stroke-width="3.5" stroke-linejoin="round" stroke-linecap="round" pointer-events="none"><g style="clip-path: url(&quot;#_export_1_r9m__shape_0l6qUEf87JLxuRYa2CH9W_clip&quot;);"><rect x="-100" y="-100" width="282.5902" height="295.0419" opacity="0"/><path d="M0,0L82.59024965221572,95.04190330486985" stroke-dasharray="none" stroke-dashoffset="none"/></g><path d="M -1.6257285123672944,3.566530701668914&#10;  a 4.725,4.725 0 1,0 9.45,0&#10;  a 4.725,4.725 0 1,0 -9.45,0 "/><path d="M 86.55306154295896 91.59826831861129 L 78.62743776147248 98.4855382911284"/></g></g></g><g transform="matrix(0.9986, -0.0523, 0.0523, 0.9986, 861.4397, 218.3222)" opacity="1"><g transform="scale(1)"><defs><clipPath id="_export_1_r9m__shape_R6eswPVFczUu-jgV-UOoT_clip"><path d="M-100,-100 h293.20867438332095 v296.3149024889491 h-293.20867438332095 ZM -1.4391209349971952,3.395382713358878&#10;  a 4.7250000000000005,4.7250000000000005 0 1,0 9.450000000000001,0&#10;  a 4.7250000000000005,4.7250000000000005 0 1,0 -9.450000000000001,0 M 96.98132184260862 92.6639257500571 L 89.43602692403334 99.96587922784113"/></clipPath></defs><g fill="none" stroke="#f1ac4b" stroke-width="3.5" stroke-linejoin="round" stroke-linecap="round" pointer-events="none"><g style="clip-path: url(&quot;#_export_1_r9m__shape_R6eswPVFczUu-jgV-UOoT_clip&quot;);"><rect x="-100" y="-100" width="293.2087" height="296.3149" opacity="0"/><path d="M0,0L93.20867438332098,96.31490248894912" stroke-dasharray="none" stroke-dashoffset="none"/></g><path d="M -1.4391209349971952,3.395382713358878&#10;  a 4.7250000000000005,4.7250000000000005 0 1,0 9.450000000000001,0&#10;  a 4.7250000000000005,4.7250000000000005 0 1,0 -9.450000000000001,0 "/><path d="M 96.98132184260862 92.6639257500571 L 89.43602692403334 99.96587922784113"/></g></g></g><g transform="matrix(0.9986, -0.0523, 0.0523, 0.9986, 914.2857, 211.5265)" opacity="1"><g transform="scale(1)"><defs><clipPath id="_export_1_r9m__shape_0clQzCh9oKMKdR5SgQnIB_clip"><path d="M-100,-100 h278.604339880594 v281.1462808931919 h-278.604339880594 ZM -1.4374996433907916,3.393812959680354&#10;  a 4.7250000000000005,4.7250000000000005 0 1,0 9.450000000000001,0&#10;  a 4.7250000000000005,4.7250000000000005 0 1,0 -9.450000000000001,0 M 82.37524316912776 77.49350271918165 L 74.83343659206032 84.79905906720212"/></clipPath></defs><g fill="none" stroke="#f87777" stroke-width="3.5" stroke-linejoin="round" stroke-linecap="round" pointer-events="none"><g style="clip-path: url(&quot;#_export_1_r9m__shape_0clQzCh9oKMKdR5SgQnIB_clip&quot;);"><rect x="-100" y="-100" width="278.6043" height="281.1463" opacity="0"/><path d="M0,0L78.60433988059404,81.14628089319189" stroke-dasharray="none" stroke-dashoffset="none"/></g><path d="M -1.4374996433907916,3.393812959680354&#10;  a 4.7250000000000005,4.7250000000000005 0 1,0 9.450000000000001,0&#10;  a 4.7250000000000005,4.7250000000000005 0 1,0 -9.450000000000001,0 "/><path d="M 82.37524316912776 77.49350271918165 L 74.83343659206032 84.79905906720212"/></g></g></g><g transform="matrix(0.9986, -0.0523, 0.0523, 0.9986, 961.4189, 200.2126)" opacity="1"><g transform="scale(1)"><defs><clipPath id="_export_1_r9m__shape_kmIZvJUMRue2krXVaTG2Z_clip"><path d="M-100,-100 h265.14573329301095 v265.3242217196173 h-265.14573329301095 ZM -1.3884943194711887,3.3456471487290727&#10;  a 4.7250000000000005,4.7250000000000005 0 1,0 9.450000000000001,0&#10;  a 4.7250000000000005,4.7250000000000005 0 1,0 -9.450000000000001,0 M 68.86311901382103 61.616993185696394 L 61.42834757220087 69.0314502535382"/></clipPath></defs><g fill="none" stroke="#1d1d1d" stroke-width="3.5" stroke-linejoin="round" stroke-linecap="round" pointer-events="none"><g style="clip-path: url(&quot;#_export_1_r9m__shape_kmIZvJUMRue2krXVaTG2Z_clip&quot;);"><rect x="-100" y="-100" width="265.1457" height="265.3242" opacity="0"/><path d="M0,0L65.14573329301095,65.3242217196173" stroke-dasharray="none" stroke-dashoffset="none"/></g><path d="M -1.3884943194711887,3.3456471487290727&#10;  a 4.7250000000000005,4.7250000000000005 0 1,0 9.450000000000001,0&#10;  a 4.7250000000000005,4.7250000000000005 0 1,0 -9.450000000000001,0 "/><path d="M 68.86311901382103 61.616993185696394 L 61.42834757220087 69.0314502535382"/></g></g></g><g transform="matrix(0.9986, -0.0523, 0.0523, 0.9986, 1014.2209, 192.8236)" opacity="1"><g transform="scale(1)"><defs><clipPath id="_export_1_r9m__shape_ExP4D84MUlRWx36UBxUaQ_clip"><path d="M-104.7207,-113.0648 h265.0205304094551 v264.3939340888777 h-265.0205304094551 ZM -6.088482086489012,-9.739955626398391&#10;  a 4.725,4.725 0 1,0 9.45,0&#10;  a 4.725,4.725 0 1,0 -9.45,0 M 63.99412447125055 47.59887359647928 L 56.60553825281459 55.059355731887024"/></clipPath></defs><g fill="none" stroke="#4ba1f1" stroke-width="3.5" stroke-linejoin="round" stroke-linecap="round" pointer-events="none"><g style="clip-path: url(&quot;#_export_1_r9m__shape_ExP4D84MUlRWx36UBxUaQ_clip&quot;);"><rect x="-104.7207" y="-113.0648" width="265.0205" height="264.3939" opacity="0"/><path d="M-4.7206990474224995,-13.064819424694575L60.29983136203257,51.32911466418315" stroke-dasharray="none" stroke-dashoffset="none"/></g><path d="M -6.088482086489012,-9.739955626398391&#10;  a 4.725,4.725 0 1,0 9.45,0&#10;  a 4.725,4.725 0 1,0 -9.45,0 "/><path d="M 63.99412447125055 47.59887359647928 L 56.60553825281459 55.059355731887024"/></g></g></g><g transform="matrix(0.9986, -0.0523, 0.0523, 0.9986, 1053.3012, 159.9449)" opacity="1"><g transform="scale(1)"><defs><clipPath id="_export_1_r9m__shape_H3BeRsLsOKnFLsnyJspXh_clip"><path d="M-100,-100 h254.9393144096486 v250.81930799506696 h-254.9393144096486 ZM -1.25639406380451,3.2084884072393667&#10;  a 4.7250000000000005,4.7250000000000005 0 1,0 9.450000000000001,0&#10;  a 4.7250000000000005,4.7250000000000005 0 1,0 -9.450000000000001,0 M 58.504301528803445 46.9653013992942 L 51.374327290493746 54.67331459083973"/></clipPath></defs><g fill="none" stroke="#f1ac4b" stroke-width="3.5" stroke-linejoin="round" stroke-linecap="round" pointer-events="none"><g style="clip-path: url(&quot;#_export_1_r9m__shape_H3BeRsLsOKnFLsnyJspXh_clip&quot;);"><rect x="-100" y="-100" width="254.9393" height="250.8193" opacity="0"/><path d="M0,0L54.939314409648595,50.819307995066964" stroke-dasharray="none" stroke-dashoffset="none"/></g><path d="M -1.25639406380451,3.2084884072393667&#10;  a 4.7250000000000005,4.7250000000000005 0 1,0 9.450000000000001,0&#10;  a 4.7250000000000005,4.7250000000000005 0 1,0 -9.450000000000001,0 "/><path d="M 58.504301528803445 46.9653013992942 L 51.374327290493746 54.67331459083973"/></g></g></g><g transform="matrix(0.9986, -0.0523, 0.0523, 0.9986, 1098.594, 141.8196)" opacity="1"><g transform="scale(1)"><defs><clipPath id="_export_1_r9m__shape_ZpJUMDdZzH3USSkMIfFNI_clip"><path d="M-100,-100 h243.61218324230143 v245.276756242609 h-243.61218324230143 ZM -1.4470616720625524,3.403049414604297&#10;  a 4.7250000000000005,4.7250000000000005 0 1,0 9.450000000000001,0&#10;  a 4.7250000000000005,4.7250000000000005 0 1,0 -9.450000000000001,0 M 47.393349258528424 41.63460254490074 L 39.83101722607443 48.918909940317285"/></clipPath></defs><g fill="none" stroke="#f87777" stroke-width="3.5" stroke-linejoin="round" stroke-linecap="round" pointer-events="none"><g style="clip-path: url(&quot;#_export_1_r9m__shape_ZpJUMDdZzH3USSkMIfFNI_clip&quot;);"><rect x="-100" y="-100" width="243.6122" height="245.2768" opacity="0"/><path d="M0,0L43.61218324230143,45.27675624260901" stroke-dasharray="none" stroke-dashoffset="none"/></g><path d="M -1.4470616720625524,3.403049414604297&#10;  a 4.7250000000000005,4.7250000000000005 0 1,0 9.450000000000001,0&#10;  a 4.7250000000000005,4.7250000000000005 0 1,0 -9.450000000000001,0 "/><path d="M 47.393349258528424 41.63460254490074 L 39.83101722607443 48.918909940317285"/></g></g></g><g transform="matrix(0.9986, -0.0523, 0.0523, 0.9986, 1136.2857, 130.5058)" opacity="1"><g transform="scale(1)"><defs><clipPath id="_export_1_r9m__shape_fpTaMXVEaozbbmUmrtXm7_clip"><path d="M-100,-100 h240.08144993909667 v237.34569583659697 h-240.08144993909667 ZM -1.2680264382817628,3.2210182851981957&#10;  a 4.725,4.725 0 1,0 9.45,0&#10;  a 4.725,4.725 0 1,0 -9.45,0 M 43.66035914487246 33.50461410135448 L 36.50254073332091 41.18677757183944"/></clipPath></defs><g fill="none" stroke="#1d1d1d" stroke-width="3.5" stroke-linejoin="round" stroke-linecap="round" pointer-events="none"><g style="clip-path: url(&quot;#_export_1_r9m__shape_fpTaMXVEaozbbmUmrtXm7_clip&quot;);"><rect x="-100" y="-100" width="240.0814" height="237.3457" opacity="0"/><path d="M0,0L40.081449939096686,37.34569583659696" stroke-dasharray="none" stroke-dashoffset="none"/></g><path d="M -1.2680264382817628,3.2210182851981957&#10;  a 4.725,4.725 0 1,0 9.45,0&#10;  a 4.725,4.725 0 1,0 -9.45,0 "/><path d="M 43.66035914487246 33.50461410135448 L 36.50254073332091 41.18677757183944"/></g></g></g></svg>