<svg xmlns="http://www.w3.org/2000/svg" direction="ltr" width="525.0592615330731" height="182.19439983579045" viewBox="1478.0559043401024 83.5480816734979 525.0592615330731 182.19439983579045" stroke-linecap="round" stroke-linejoin="round" data-color-mode="light" class="tl-container tl-theme__force-sRGB tl-theme__light" style="background-color: transparent;"><defs/><g transform="matrix(1, 0, 0, 1, 1510.0559, 142.5016)" opacity="1"><path d="M6.9994,-0.0911 L73.6054,-0.9581 Q80.6048,-1.0492 80.627,5.9508 L80.7659,49.6958 Q80.7882,56.6958 73.7882,56.7186 L6.9087,56.9361 Q-0.0912,56.9589 -0.1351,49.9591 L-0.4106,5.982 Q-0.4545,-1.0179 6.5455,-1.0084 L72.379,-0.919 Q79.379,-0.9095 79.5886,6.0874 L80.8966,49.7534 Q81.1062,56.7502 74.1062,56.7436 L7.2273,56.6806 Q0.2273,56.674 0.0884,49.6753 L-0.7587,6.9949 Q-0.8976,-0.0037 6.9994,-0.0911 " stroke="#1d1d1d" stroke-width="3.5" fill="none"/></g><g transform="matrix(1, 0, 0, 1, 1720.8384, 115.5481)" opacity="1"><path d="M6.9989,0.1237 L52.2815,0.9239 Q59.2804,1.0476 59.2154,8.0473 L59.0277,28.2466 Q58.9627,35.2463 51.9654,35.4392 L8.0123,36.6508 Q1.015,36.8437 0.625,29.8546 L-0.7045,6.0267 Q-1.0945,-0.9625 5.9054,-0.9192 L53.084,-0.6275 Q60.0839,-0.5842 60.1912,6.415 L60.5347,28.8112 Q60.642,35.8104 53.6424,35.8819 L6.4005,36.3644 Q-0.5992,36.4359 -0.3212,29.4414 L0.5348,7.9042 Q0.8128,0.9097 6.9989,0.1237 " stroke="#1d1d1d" stroke-width="3.5" fill="none"/></g><g transform="matrix(1, 0, 0, 1, 1606.2066, 122.6938)" opacity="1"><path d="M7,-0.0178 L37.3225,-0.0947 Q44.3224,-0.1124 44.0679,6.883 L43.1597,31.8368 Q42.9052,38.8321 35.9082,38.6273 L7.1368,37.785 Q0.1398,37.5802 0.1726,30.5803 L0.2858,6.4698 Q0.3186,-0.5301 7.317,-0.3798 L37.4351,0.2672 Q44.4335,0.4175 44.0829,7.4087 L42.8991,31.0086 Q42.5485,37.9998 35.5496,38.1228 L8.1152,38.6049 Q1.1163,38.7279 0.8044,31.7348 L-0.266,7.7331 Q-0.5779,0.7401 7,-0.0178 " stroke="#4ba1f1" stroke-width="3.5" fill="none"/></g><g transform="matrix(1, 0, 0, 1, 1625.6018, 154.4478)" opacity="1"><path d="M6.9997,0.0626 L74.1943,0.6639 Q81.194,0.7266 81.1004,7.726 L80.8014,30.0945 Q80.7079,37.0939 73.7086,36.9904 L7.7453,36.015 Q0.746,35.9115 0.5193,28.9151 L-0.2273,5.8807 Q-0.4541,-1.1157 6.5449,-0.997 L74.5451,0.1556 Q81.5441,0.2742 81.3809,7.2723 L80.8584,29.6786 Q80.6952,36.6767 73.6956,36.6026 L7.438,35.9011 Q0.4384,35.827 0.1664,28.8323 L-0.6652,7.4457 Q-0.9372,0.451 6.9997,0.0626 " stroke="#f1ac4b" stroke-width="3.5" fill="none"/></g><g transform="matrix(1, 0, 0, 1, 1730.8143, 137.4739)" opacity="1"><path d="M6.9999,-0.0448 L28.4169,-0.1821 Q35.4168,-0.2269 35.3875,5.3279 L35.3289,16.4376 Q35.2997,21.9924 28.3014,22.1492 L7.7328,22.6097 Q0.7346,22.7664 0.7661,17.2033 L0.8292,6.0769 Q0.8607,0.5137 7.8602,0.4318 L26.476,0.2142 Q33.4756,0.1324 33.8139,5.4933 L34.4905,16.2153 Q34.8288,21.5763 27.8294,21.6699 L7.4626,21.9422 Q0.4632,22.0358 0.4499,16.418 L0.4233,5.1823 Q0.41,-0.4356 6.9999,-0.0448 " stroke="#f87777" stroke-width="3.5" fill="none"/></g><g transform="matrix(1, 0, 0, 1, 1662.7248, 205.8497)" opacity="1"><path d="M6.3264,0.1427 L18.9792,0.4282 Q25.3055,0.5709 25.5159,7.415 L25.9366,21.1033 Q26.1469,27.9474 19.7264,28.0014 L6.8852,28.1093 Q0.4647,28.1633 0.3529,21.1642 L0.1244,6.8656 Q0.0126,-0.1335 6.5893,0.1646 L19.7427,0.7609 Q26.3194,1.0591 26.514,7.9317 L26.9032,21.6768 Q27.0978,28.5494 20.4222,28.2711 L7.071,27.7145 Q0.3954,27.4362 0.3274,20.6412 L0.1914,7.0513 Q0.1234,0.2563 6.3264,0.1427 " stroke="#1d1d1d" stroke-width="3.5" fill="none"/></g><g transform="matrix(1, 0, 0, 1, 1734.5283, 178.7403)" opacity="1"><path d="M6.9996,0.0704 L100.8552,1.0143 Q107.8548,1.0847 108.056,5.1494 L108.4582,13.2788 Q108.6594,17.3436 101.6594,17.3399 L6.4563,17.2907 Q-0.5437,17.2871 -0.2196,13.0396 L0.4285,4.5445 Q0.7526,0.297 7.7525,0.2556 L101.9772,-0.3008 Q108.9771,-0.3421 108.9232,4.0521 L108.8154,12.8406 Q108.7614,17.2348 101.7619,17.3136 L8.1609,18.3669 Q1.1614,18.4457 0.6249,14.0894 L-0.448,5.3767 Q-0.9845,1.0204 6.9996,0.0704 " stroke="#4ba1f1" stroke-width="3.5" fill="none"/></g><g transform="matrix(1, 0, 0, 1, 1801.5693, 153.2941)" opacity="1"><path d="M6.9998,-0.0592 L69.2351,-0.5851 Q76.2349,-0.6442 76.322,6.3552 L77.106,69.3169 Q77.1931,76.3163 70.1932,76.3447 L7.4984,76.5989 Q0.4985,76.6273 0.4671,69.6274 L0.1901,7.7947 Q0.1587,0.7948 7.1587,0.793 L69.0641,0.7775 Q76.0641,0.7757 76.1081,7.7756 L76.4929,68.9458 Q76.537,75.9457 69.537,75.9592 L7.9581,76.0776 Q0.9581,76.091 0.7778,69.0934 L-0.812,7.3825 Q-0.9922,0.3848 6.9998,-0.0592 " stroke="#1d1d1d" stroke-width="3.5" fill="none"/></g><g transform="matrix(1, 0, 0, 1, 1893.1217, 175.1779)" opacity="1"><path d="M7,-0.0228 L70.2966,-0.2291 Q77.2965,-0.252 77.5556,6.7432 L78.6368,35.9457 Q78.8958,42.941 71.8961,42.8814 L6.6698,42.326 Q-0.3299,42.2664 -0.0866,35.2707 L0.8581,8.1039 Q1.1014,1.1081 8.1008,1.0199 L70.5003,0.2331 Q77.4998,0.1448 77.5248,7.1448 L77.628,36.0532 Q77.653,43.0531 70.653,43.0629 L7.7411,43.1503 Q0.7411,43.16 0.4328,36.1668 L-0.8411,7.2719 Q-1.1494,0.2787 7,-0.0228 " stroke="#f87777" stroke-width="3.5" fill="none"/></g><g transform="matrix(1, 0, 0, 1, 1899.1812, 129.2206)" opacity="1"><path d="M6.7614,0.0874 L20.2843,0.2622 Q27.0457,0.3496 27.0643,7.3495 L27.1043,22.4823 Q27.1229,29.4823 20.1763,29.6942 L6.2833,30.118 Q-0.6632,30.3298 -0.4278,23.3338 L0.0953,7.7919 Q0.3308,0.7959 7.2963,0.6245 L21.2274,0.2818 Q28.193,0.1104 28.338,7.1089 L28.6435,21.8446 Q28.7886,28.8431 21.8811,28.8073 L8.0661,28.7356 Q1.1586,28.6998 1.0502,21.751 L0.8336,7.8534 Q0.7252,0.9046 6.7614,0.0874 " stroke="#1d1d1d" stroke-width="3.5" fill="none"/></g><g transform="matrix(1, 0, 0, 1, 1527.119, 190.3589)" opacity="1"><path d="M6.9999,0.0403 L44.9371,0.2587 Q51.9369,0.2989 51.6741,7.294 L50.8696,28.7043 Q50.6067,35.6993 43.6068,35.6722 L6.1662,35.527 Q-0.8337,35.4998 -0.8439,28.4998 L-0.8761,6.4233 Q-0.8863,-0.5767 6.1123,-0.4376 L44.7783,0.3309 Q51.7769,0.47 51.5059,7.4647 L50.7144,27.8991 Q50.4434,34.8939 43.4445,35.0207 L7.6759,35.6687 Q0.677,35.7955 0.5066,28.7976 L-0.0292,6.8006 Q-0.1997,-0.1973 6.9999,0.0403 " stroke="#f1ac4b" stroke-width="3.5" fill="none"/></g><g transform="matrix(1, 0, 0, 1, 1825.2512, 128.2657)" opacity="1"><path d="M7,-0.0169 L31.3928,-0.0756 Q38.3928,-0.0925 38.4097,6.9075 L38.5243,54.5009 Q38.5412,61.5009 31.5489,61.8302 L8.0711,62.9357 Q1.0788,63.265 0.9311,56.2665 L-0.1251,6.2212 Q-0.2729,-0.7773 6.7212,-0.4893 L31.0144,0.511 Q38.0085,0.799 38.0001,7.799 L37.9421,56.3123 Q37.9338,63.3123 30.9338,63.2855 L7.872,63.1974 Q0.872,63.1707 0.7338,56.1721 L-0.2272,7.5275 Q-0.3654,0.5289 7,-0.0169 " stroke="#f1ac4b" stroke-width="3.5" fill="none"/></g></svg>