<svg xmlns="http://www.w3.org/2000/svg" direction="ltr" width="580.3938125928069" height="187.3946848207632" viewBox="1483.782770294839 118.69646601819449 580.3938125928069 187.3946848207632" stroke-linecap="round" stroke-linejoin="round" data-color-mode="light" class="tl-container tl-theme__force-sRGB tl-theme__light" style="background-color: transparent;"><defs/><g transform="matrix(1, 0, 0, 1, 1578.2551, 198.9914)" opacity="1"><path d="M6.5894,-0.0549 L19.7682,-0.1648 Q26.3576,-0.2198 25.9597,6.3167 L25.1639,19.3896 Q24.7659,25.9261 18.3345,26.1793 L5.4717,26.6857 Q-0.9598,26.939 -0.4435,19.9863 L0.5891,6.0811 Q1.1054,-0.8715 7.1258,-0.5663 L19.1666,0.0442 Q25.187,0.3495 25.609,6.6134 L26.4528,19.1413 Q26.8747,25.4052 20.3739,25.3769 L7.3724,25.3204 Q0.8717,25.2921 0.4668,18.8275 L-0.3429,5.8982 Q-0.7478,-0.5664 6.5894,-0.0549 " stroke="#1d1d1d" stroke-width="3.5" fill="none"/></g><g transform="matrix(1, 0, 0, 1, 1662.6593, 191.6808)" opacity="1"><path d="M5.9294,0.085 L17.7883,0.255 Q23.7177,0.3399 23.6516,6.1459 L23.5194,17.7578 Q23.4533,23.5637 17.6529,24.0412 L6.0522,24.9961 Q0.2518,25.4736 0.1883,19.3935 L0.0614,7.2333 Q-0.002,1.1533 5.9095,0.6805 L17.7324,-0.265 Q23.6439,-0.7377 24.1304,5.6948 L25.1035,18.5598 Q25.59,24.9924 19.1108,24.9245 L6.1523,24.7887 Q-0.327,24.7208 -0.2558,18.6345 L-0.1135,6.4618 Q-0.0423,0.3754 5.9294,0.085 " stroke="#1d1d1d" stroke-width="3.5" fill="none"/></g><g transform="matrix(1, 0, 0, 1, 1755.0386, 203.6436)" opacity="1"><path d="M6.9969,0.2093 L22.9096,0.6852 Q29.9065,0.8944 29.9765,7.8941 L30.1222,22.464 Q30.1922,29.4637 23.1934,29.3366 L6.3231,29.0302 Q-0.6757,28.9031 -0.4469,21.9068 L0.0223,7.5633 Q0.2512,0.567 7.2423,0.2148 L23.2642,-0.5924 Q30.2554,-0.9447 30.0108,6.051 L29.4118,23.1801 Q29.1672,30.1759 22.1672,30.1568 L7.17,30.1158 Q0.1701,30.0968 -0.0394,23.0999 L-0.5493,6.0692 Q-0.7587,-0.9277 6.9969,0.2093 " stroke="#1d1d1d" stroke-width="3.5" fill="none"/></g><g transform="matrix(1, 0, 0, 1, 1848.7471, 205.6374)" opacity="1"><path d="M6.7493,-0.0082 L20.248,-0.0245 Q26.9973,-0.0327 27.1438,6.9159 L27.4369,20.8129 Q27.5834,27.7615 20.9425,27.6701 L7.6608,27.4873 Q1.0199,27.3959 0.5472,20.4118 L-0.4174,6.1617 Q-0.8901,-0.8223 6.1094,-0.7339 L20.6354,-0.5505 Q27.6349,-0.4621 27.4603,6.5358 L27.0753,21.9781 Q26.9008,28.9759 20.3101,28.4337 L7.1288,27.3495 Q0.5382,26.8073 0.5682,19.8254 L0.6282,5.8616 Q0.6582,-1.1203 6.7493,-0.0082 " stroke="#1d1d1d" stroke-width="3.5" fill="none"/></g><g transform="matrix(1, 0, 0, 1, 1943.7848, 192.3454)" opacity="1"><path d="M6.5047,0.0558 L19.514,0.1675 Q26.0186,0.2233 25.8311,6.8472 L25.4562,20.0951 Q25.2687,26.719 19.1494,26.3503 L6.9109,25.6129 Q0.7916,25.2442 0.498,19.0942 L-0.0891,6.7942 Q-0.3827,0.6441 6.0555,0.583 L18.932,0.4609 Q25.3703,0.3998 25.457,6.7511 L25.6304,19.4537 Q25.7171,25.8051 19.1625,25.8413 L6.0532,25.9139 Q-0.5014,25.9502 -0.6631,19.4131 L-0.9866,6.3391 Q-1.1483,-0.1979 6.5047,0.0558 " stroke="#1d1d1d" stroke-width="3.5" fill="none"/></g><g transform="matrix(1, 0, 0, 1, 1515.7828, 235.5444)" opacity="1"><g transform="scale(1)"><defs><clipPath id="_export_3_rek__shape_yDY9c8D0Wd5ZKob8olLrY_clip"><path d="M-100,-121.9318 h251.17418901635824 v221.9317771838268 h-251.17418901635824 Z"/></clipPath></defs><g fill="none" stroke="#1d1d1d" stroke-width="3.5" stroke-linejoin="round" stroke-linecap="round" pointer-events="none"><g style="clip-path: url(&quot;#_export_3_rek__shape_yDY9c8D0Wd5ZKob8olLrY_clip&quot;);"><rect x="-100" y="-121.9318" width="251.1742" height="221.9318" opacity="0"/><path d="M0,0L51.17418901635824,-21.931777183826796" stroke-dasharray="none" stroke-dashoffset="none"/></g><path d="M 40.74808214011355 -23.175278452472362 L 51.17418901635824 -21.931777183826796 L 44.884231889950655 -13.52425440075006"/></g></g></g><g transform="matrix(1, 0, 0, 1, 1616.1373, 208.9604)" opacity="1"><g transform="scale(1)"><defs><clipPath id="_export_3_rek__shape_J3wQ4NaA8PKQVNs-fdD-d_clip"><path d="M-100,-106.646 h234.55915175514156 v206.6459946225207 h-234.55915175514156 Z"/></clipPath></defs><g fill="none" stroke="#1d1d1d" stroke-width="3.5" stroke-linejoin="round" stroke-linecap="round" pointer-events="none"><g style="clip-path: url(&quot;#_export_3_rek__shape_J3wQ4NaA8PKQVNs-fdD-d_clip&quot;);"><rect x="-100" y="-106.646" width="234.5592" height="206.646" opacity="0"/><path d="M0,0L34.559151755141556,-6.645994622520703" stroke-dasharray="none" stroke-dashoffset="none"/></g><path d="M 27.908731622250656 -8.950789762731318 L 34.559151755141556 -6.645994622520703 L 29.237930546754797 -2.0389594117030088"/></g></g></g><g transform="matrix(1, 0, 0, 1, 1698.5476, 201.6498)" opacity="1"><g transform="scale(1)"><defs><clipPath id="_export_3_rek__shape_PnhZiQY36JN8FPP7L5sqb_clip"><path d="M-100,-100 h247.85119170509824 v215.2857825613061 h-247.85119170509824 Z"/></clipPath></defs><g fill="none" stroke="#1d1d1d" stroke-width="3.5" stroke-linejoin="round" stroke-linecap="round" pointer-events="none"><g style="clip-path: url(&quot;#_export_3_rek__shape_PnhZiQY36JN8FPP7L5sqb_clip&quot;);"><rect x="-100" y="-100" width="247.8512" height="215.2858" opacity="0"/><path d="M0,0L47.851191705098245,15.285782561306092" stroke-dasharray="none" stroke-dashoffset="none"/></g><path d="M 41.091700437633996 7.853088187833022 L 47.851191705098245 15.285782561306092 L 38.03454392537278 17.423326528852666"/></g></g></g><g transform="matrix(1, 0, 0, 1, 1798.2375, 221.5878)" opacity="1"><g transform="scale(1)"><defs><clipPath id="_export_3_rek__shape_BR1HpbYlNmZc5KfosN30P_clip"><path d="M-100,-102.6584 h241.20519708257711 v202.65840798999128 h-241.20519708257711 Z"/></clipPath></defs><g fill="none" stroke="#1d1d1d" stroke-width="3.5" stroke-linejoin="round" stroke-linecap="round" pointer-events="none"><g style="clip-path: url(&quot;#_export_3_rek__shape_BR1HpbYlNmZc5KfosN30P_clip&quot;);"><rect x="-100" y="-102.6584" width="241.2052" height="202.6584" opacity="0"/><path d="M0,0L41.205197082577115,-2.658407989991275" stroke-dasharray="none" stroke-dashoffset="none"/></g><path d="M 33.80240679528674 -6.31847792765779 L 41.205197082577115 -2.658407989991275 L 34.334088393285 1.922561488857629"/></g></g></g><g transform="matrix(1, 0, 0, 1, 1889.2877, 220.2586)" opacity="1"><g transform="scale(1)"><defs><clipPath id="_export_3_rek__shape_tWsJ3VvhSJM44Ll2VacAZ_clip"><path d="M-100,-114.6212 h242.5343250202004 v214.62119324003703 h-242.5343250202004 Z"/></clipPath></defs><g fill="none" stroke="#1d1d1d" stroke-width="3.5" stroke-linejoin="round" stroke-linecap="round" pointer-events="none"><g style="clip-path: url(&quot;#_export_3_rek__shape_tWsJ3VvhSJM44Ll2VacAZ_clip&quot;);"><rect x="-100" y="-114.6212" width="242.5343" height="214.6212" opacity="0"/><path d="M0,0L42.53432502020041,-14.62119324003703" stroke-dasharray="none" stroke-dashoffset="none"/></g><path d="M 33.70504449613319 -16.342160786154395 L 42.53432502020041 -14.62119324003703 L 36.629283144140594 -7.835295782114315"/></g></g></g><g transform="matrix(1, 0, 0, 1, 1982.9963, 208.9604)" opacity="1"><g transform="scale(1)"><defs><clipPath id="_export_3_rek__shape_Hz2Dt4vlPotF63ihU9V2g_clip"><path d="M-100,-100 h249.1803196427211 v214.62119324003703 h-249.1803196427211 Z"/></clipPath></defs><g fill="none" stroke="#1d1d1d" stroke-width="3.5" stroke-linejoin="round" stroke-linecap="round" pointer-events="none"><g style="clip-path: url(&quot;#_export_3_rek__shape_Hz2Dt4vlPotF63ihU9V2g_clip&quot;);"><rect x="-100" y="-100" width="249.1803" height="214.6212" opacity="0"/><path d="M0,0L49.18031964272109,14.62119324003703" stroke-dasharray="none" stroke-dashoffset="none"/></g><path d="M 42.12415773135773 7.170696319862245 L 49.18031964272109 14.62119324003703 L 39.19991908335032 17.006760248406465"/></g></g></g><g transform="matrix(1, 0, 0, 1, 1598.1931, 186.3641)" opacity="1"><g transform="scale(1)"><defs><clipPath id="_export_3_rek__shape_5TzwrlYe3R9tlmEqaZOlU_clip"><path d="M-100,-121.9318 h219.27339454629305 v221.9318025362843 h-219.27339454629305 ZM 17.080214292664618 -23.8591419909136 L 21.466574799921478 -20.00446308165499"/></clipPath></defs><g fill="none" stroke="#4ba1f1" stroke-width="3.5" stroke-linejoin="round" stroke-linecap="round" pointer-events="none"><g style="clip-path: url(&quot;#_export_3_rek__shape_5TzwrlYe3R9tlmEqaZOlU_clip&quot;);"><rect x="-100" y="-121.9318" width="219.2734" height="221.9318" opacity="0"/><path d="M0,0L19.273394546293048,-21.931802536284295" stroke-dasharray="none" stroke-dashoffset="none"/></g><path d="M 17.080214292664618 -23.8591419909136 L 21.466574799921478 -20.00446308165499"/></g></g></g><g transform="matrix(1, 0, 0, 1, 1681.268, 226.9046)" opacity="1"><g transform="scale(1)"><defs><clipPath id="_export_3_rek__shape_TzmqNkzUFx3VoyzOKfBdw_clip"><path d="M-100,-100 h222.59639185755327 v223.92557050009148 h-222.59639185755327 ZM 24.98894890756242 21.665931314336156 L 20.203834807544123 26.185209685846807"/></clipPath></defs><g fill="none" stroke="#4ba1f1" stroke-width="3.5" stroke-linejoin="round" stroke-linecap="round" pointer-events="none"><g style="clip-path: url(&quot;#_export_3_rek__shape_TzmqNkzUFx3VoyzOKfBdw_clip&quot;);"><rect x="-100" y="-100" width="222.5964" height="223.9256" opacity="0"/><path d="M0,0L22.59639185755327,23.92557050009148" stroke-dasharray="none" stroke-dashoffset="none"/></g><path d="M 24.98894890756242 21.665931314336156 L 20.203834807544123 26.185209685846807"/></g></g></g><g transform="matrix(1, 0, 0, 1, 1867.3559, 193.6746)" opacity="1"><g transform="scale(1)"><defs><clipPath id="_export_3_rek__shape_eYyDUWkZ9e70aD8dVDoe3_clip"><path d="M-100,-124.5902 h215.28575720884874 v224.5901724975893 h-215.28575720884874 ZM 12.826739959089807 -26.118748218474167 L 17.744774458607665 -23.06159677670442"/></clipPath></defs><g fill="none" stroke="#4ba1f1" stroke-width="3.5" stroke-linejoin="round" stroke-linecap="round" pointer-events="none"><g style="clip-path: url(&quot;#_export_3_rek__shape_eYyDUWkZ9e70aD8dVDoe3_clip&quot;);"><rect x="-100" y="-124.5902" width="215.2858" height="224.5902" opacity="0"/><path d="M0,0L15.285757208848736,-24.590172497589293" stroke-dasharray="none" stroke-dashoffset="none"/></g><path d="M 12.826739959089807 -26.118748218474167 L 17.744774458607665 -23.06159677670442"/></g></g></g><g transform="matrix(1, 0, 0, 1, 1584.9011, 183.7056)" opacity="1"><g transform="scale(1)"><defs><clipPath id="_export_3_rek__shape_d8XYmov-BvLZAdir8Rtdm_clip"><path d="M-100,-133.0092 h208.84477993400296 v233.00916809546482 h-208.84477993400296 ZM 5.543863124456488 -33.89364608886512 L 12.145696743549452 -32.12469010206453"/></clipPath></defs><g fill="none" stroke="#f1ac4b" stroke-width="3.5" stroke-linejoin="round" stroke-linecap="round" pointer-events="none"><g style="clip-path: url(&quot;#_export_3_rek__shape_d8XYmov-BvLZAdir8Rtdm_clip&quot;);"><rect x="-100" y="-133.0092" width="208.8448" height="233.0092" opacity="0"/><path d="M0,0L8.84477993400297,-33.00916809546482" stroke-dasharray="none" stroke-dashoffset="none"/></g><path d="M 5.543863124456488 -33.89364608886512 L 12.145696743549452 -32.12469010206453"/></g></g></g><g transform="matrix(1, 0, 0, 1, 1667.9761, 225.5754)" opacity="1"><g transform="scale(1)"><defs><clipPath id="_export_3_rek__shape_KZpGFo3_XdH5k0Hub_QLQ_clip"><path d="M-107.3106,-100 h207.31058394378988 v241.86976105138885 h-207.31058394378988 ZM -3.123607838650994 42.60081944576784 L -11.497560048928765 41.13870265700986"/></clipPath></defs><g fill="none" stroke="#f1ac4b" stroke-width="3.5" stroke-linejoin="round" stroke-linecap="round" pointer-events="none"><g style="clip-path: url(&quot;#_export_3_rek__shape_KZpGFo3_XdH5k0Hub_QLQ_clip&quot;);"><rect x="-107.3106" y="-100" width="207.3106" height="241.8698" opacity="0"/><path d="M0,0L-7.310583943789879,41.86976105138885" stroke-dasharray="none" stroke-dashoffset="none"/></g><path d="M -3.123607838650994 42.60081944576784 L -11.497560048928765 41.13870265700986"/></g></g></g><g transform="matrix(1, 0, 0, 1, 1789.5978, 195.0038)" opacity="1"><g transform="scale(1)"><defs><clipPath id="_export_3_rek__shape_syd7btw7uiu3njiAvBYEO_clip"><path d="M-100,-115.2858 h217.94416519883998 v215.28576988507731 h-217.94416519883998 ZM 16.415588210332253 -17.080186404961314 L 19.472742187347713 -13.491353365193316"/></clipPath></defs><g fill="none" stroke="#f1ac4b" stroke-width="3.5" stroke-linejoin="round" stroke-linecap="round" pointer-events="none"><g style="clip-path: url(&quot;#_export_3_rek__shape_syd7btw7uiu3njiAvBYEO_clip&quot;);"><rect x="-100" y="-115.2858" width="217.9442" height="215.2858" opacity="0"/><path d="M0,0L17.944165198839983,-15.285769885077315" stroke-dasharray="none" stroke-dashoffset="none"/></g><path d="M 16.415588210332253 -17.080186404961314 L 19.472742187347713 -13.491353365193316"/></g></g></g><g transform="matrix(1, 0, 0, 1, 1950.4308, 225.5754)" opacity="1"><g transform="scale(1)"><defs><clipPath id="_export_3_rek__shape_lI98eEd0jOuvor2863kyb_clip"><path d="M-100,-100 h213.29198924504135 v241.20517173011987 h-213.29198924504135 ZM 17.412506418053336 39.87597280561574 L 9.171472072029363 42.534370654624006"/></clipPath></defs><g fill="none" stroke="#f1ac4b" stroke-width="3.5" stroke-linejoin="round" stroke-linecap="round" pointer-events="none"><g style="clip-path: url(&quot;#_export_3_rek__shape_lI98eEd0jOuvor2863kyb_clip&quot;);"><rect x="-100" y="-100" width="213.292" height="241.2052" opacity="0"/><path d="M0,0L13.29198924504135,41.20517173011987" stroke-dasharray="none" stroke-dashoffset="none"/></g><path d="M 17.412506418053336 39.87597280561574 L 9.171472072029363 42.534370654624006"/></g></g></g><g transform="matrix(1, 0, 0, 1, 1961.729, 228.8984)" opacity="1"><g transform="scale(1)"><defs><clipPath id="_export_3_rek__shape_jRij9RZupktACiIt5sCld_clip"><path d="M-100,-100 h223.92562120500634 v216.61498655630172 h-223.92562120500634 ZM 25.58711986063651 14.222424435801083 L 22.264122549376165 19.00754867680235"/></clipPath></defs><g fill="none" stroke="#f87777" stroke-width="3.5" stroke-linejoin="round" stroke-linecap="round" pointer-events="none"><g style="clip-path: url(&quot;#_export_3_rek__shape_jRij9RZupktACiIt5sCld_clip&quot;);"><rect x="-100" y="-100" width="223.9256" height="216.615" opacity="0"/><path d="M0,0L23.925621205006337,16.614986556301716" stroke-dasharray="none" stroke-dashoffset="none"/></g><path d="M 25.58711986063651 14.222424435801083 L 22.264122549376165 19.00754867680235"/></g></g></g><g transform="matrix(1, 0, 0, 1, 1683.2619, 179.0534)" opacity="1"><g transform="scale(1)"><defs><clipPath id="_export_3_rek__shape_A4VN0-v-kRBt2aoD2RJKt_clip"><path d="M-100,-109.3044 h219.93798386756202 v209.3043645838257 h-219.93798386756202 ZM 19.007547409179455 -11.298162970581904 L 20.868420325944594 -7.3105661970695"/></clipPath></defs><g fill="none" stroke="#f87777" stroke-width="3.5" stroke-linejoin="round" stroke-linecap="round" pointer-events="none"><g style="clip-path: url(&quot;#_export_3_rek__shape_A4VN0-v-kRBt2aoD2RJKt_clip&quot;);"><rect x="-100" y="-109.3044" width="219.938" height="209.3044" opacity="0"/><path d="M0,0L19.937983867562025,-9.304364583825702" stroke-dasharray="none" stroke-dashoffset="none"/></g><path d="M 19.007547409179455 -11.298162970581904 L 20.868420325944594 -7.3105661970695"/></g></g></g><g transform="matrix(1, 0, 0, 1, 1767.666, 243.5196)" opacity="1"><g transform="scale(1)"><defs><clipPath id="_export_3_rek__shape_zf161GzIt5FnpMWYs1NZ0_clip"><path d="M-100,-100 h207.97522396997374 v230.57156512261216 h-207.97522396997374 ZM 11.032380482234956 29.774042725614784 L 4.9180674577125245 31.36908751960953"/></clipPath></defs><g fill="none" stroke="#f87777" stroke-width="3.5" stroke-linejoin="round" stroke-linecap="round" pointer-events="none"><g style="clip-path: url(&quot;#_export_3_rek__shape_zf161GzIt5FnpMWYs1NZ0_clip&quot;);"><rect x="-100" y="-100" width="207.9752" height="230.5716" opacity="0"/><path d="M0,0L7.97522396997374,30.571565122612157" stroke-dasharray="none" stroke-dashoffset="none"/></g><path d="M 11.032380482234956 29.774042725614784 L 4.9180674577125245 31.36908751960953"/></g></g></g><g transform="matrix(1, 0, 0, 1, 1881.3125, 198.9914)" opacity="1"><g transform="scale(1)"><defs><clipPath id="_export_3_rek__shape_JEephq5Uemzj6KJkW_3Rb_clip"><path d="M-100,-110.6336 h215.95034653011749 v210.6335812550501 h-215.95034653011749 ZM 14.886988404612476 -12.228615908061851 L 17.013704655622497 -9.038546602038355"/></clipPath></defs><g fill="none" stroke="#f87777" stroke-width="3.5" stroke-linejoin="round" stroke-linecap="round" pointer-events="none"><g style="clip-path: url(&quot;#_export_3_rek__shape_JEephq5Uemzj6KJkW_3Rb_clip&quot;);"><rect x="-100" y="-110.6336" width="215.9503" height="210.6336" opacity="0"/><path d="M0,0L15.950346530117486,-10.633581255050103" stroke-dasharray="none" stroke-dashoffset="none"/></g><path d="M 14.886988404612476 -12.228615908061851 L 17.013704655622497 -9.038546602038355"/></g></g></g></svg>