<svg xmlns="http://www.w3.org/2000/svg" direction="ltr" width="212.12703261980505" height="137.7902232796035" viewBox="1606.6091426970943 21.71824994621602 212.12703261980505 137.7902232796035" stroke-linecap="round" stroke-linejoin="round" data-color-mode="light" class="tl-container tl-theme__force-sRGB tl-theme__light" style="background-color: transparent;"><defs/><g transform="matrix(1, 0, 0, 1, 1638.6091, 71.2093)" opacity="1"><path d="M7,-0.0033 L34.0165,-0.0161 Q41.0165,-0.0194 41.0857,6.9802 L41.3529,33.9951 Q41.4221,40.9948 34.4224,41.0611 L6.3969,41.3267 Q-0.6028,41.393 -0.5985,34.393 L-0.5812,6.7771 Q-0.5768,-0.2228 6.422,-0.0949 L34.4682,0.4178 Q41.467,0.5457 41.6952,7.542 L42.5793,34.6466 Q42.8074,41.6429 35.8084,41.5296 L7.6274,41.0735 Q0.6283,40.9602 0.6833,33.9604 L0.891,7.5217 Q0.946,0.5219 7,-0.0033 " stroke="#1d1d1d" stroke-width="3.5" fill="none"/></g><g transform="matrix(1, 0, 0, 1, 1702.014, 83.7809)" opacity="1"><g transform="scale(1)"><defs><clipPath id="_export_10_r1rp__shape_AWCEsEOxPCmfggk4aG1z__clip"><path d="M-100,-120.224 h284.7221321498621 v220.22398658049707 h-284.7221321498621 Z"/></clipPath></defs><g fill="none" stroke="#1d1d1d" stroke-width="3.5" stroke-linejoin="round" stroke-linecap="round" pointer-events="none"><g style="clip-path: url(&quot;#_export_10_r1rp__shape_AWCEsEOxPCmfggk4aG1z__clip&quot;);"><rect x="-100" y="-120.224" width="284.7221" height="220.224" opacity="0"/><path d="M0,0L84.72213214986209,-20.22398658049707" stroke-dasharray="none" stroke-dashoffset="none"/></g><path d="M 74.65839510156326 -23.21918217055415 L 84.72213214986209 -20.22398658049707 L 77.09634815542012 -13.006132434692194"/></g></g></g><g transform="matrix(1, 0, 0, 1, 1693.2685, 106.1913)" opacity="1"><g transform="scale(1)"><defs><clipPath id="_export_10_r1rp__shape_eD9GZsX0JuC03QaSrK27C_clip"><path d="M-100,-100 h227.32972004834278 v221.31715870169344 h-227.32972004834278 ZM 29.461435918512123 18.584186696859167 L 25.198004178173434 24.05013070652772"/></clipPath></defs><g fill="none" stroke="#4ba1f1" stroke-width="3.5" stroke-linejoin="round" stroke-linecap="round" pointer-events="none"><g style="clip-path: url(&quot;#_export_10_r1rp__shape_eD9GZsX0JuC03QaSrK27C_clip&quot;);"><rect x="-100" y="-100" width="227.3297" height="221.3172" opacity="0"/><path d="M0,0L27.32972004834278,21.317158701693444" stroke-dasharray="none" stroke-dashoffset="none"/></g><path d="M 29.461435918512123 18.584186696859167 L 25.198004178173434 24.05013070652772"/></g></g></g><g transform="matrix(1, 0, 0, 1, 1692.1754, 70.1161)" opacity="1"><g transform="scale(1)"><defs><clipPath id="_export_10_r1rp__shape_4BVAWx9eCDBqYp3beaV1E_clip"><path d="M-100,-116.3979 h220.22397615503633 v216.39785287992729 h-220.22397615503633 ZM 18.584190867043596 -18.420250495430917 L 21.863761443029055 -14.375455264423653"/></clipPath></defs><g fill="none" stroke="#f1ac4b" stroke-width="3.5" stroke-linejoin="round" stroke-linecap="round" pointer-events="none"><g style="clip-path: url(&quot;#_export_10_r1rp__shape_4BVAWx9eCDBqYp3beaV1E_clip&quot;);"><rect x="-100" y="-116.3979" width="220.224" height="216.3979" opacity="0"/><path d="M0,0L20.223976155036326,-16.397852879927285" stroke-dasharray="none" stroke-dashoffset="none"/></g><path d="M 18.584190867043596 -18.420250495430917 L 21.863761443029055 -14.375455264423653"/></g></g></g><g transform="matrix(1, 0, 0, 1, 1705.2936, 97.4458)" opacity="1"><g transform="scale(1)"><defs><clipPath id="_export_10_r1rp__shape_pNO5PNp6GZ33lNIXApF8M_clip"><path d="M-100,-100 h241.54116613311203 v208.74551250056186 h-241.54116613311203 ZM 42.415717383168214 4.5913958872506555 L 40.66661488305584 12.899629113873061"/></clipPath></defs><g fill="none" stroke="#f87777" stroke-width="3.5" stroke-linejoin="round" stroke-linecap="round" pointer-events="none"><g style="clip-path: url(&quot;#_export_10_r1rp__shape_pNO5PNp6GZ33lNIXApF8M_clip&quot;);"><rect x="-100" y="-100" width="241.5412" height="208.7455" opacity="0"/><path d="M0,0L41.54116613311203,8.745512500561858" stroke-dasharray="none" stroke-dashoffset="none"/></g><path d="M 42.415717383168214 4.5913958872506555 L 40.66661488305584 12.899629113873061"/></g></g></g></svg>